G04 #@! TF.GenerationSoftware,KiCad,Pcbnew,(5.1.0)-1*
G04 #@! TF.CreationDate,2019-04-11T14:20:27+03:00*
G04 #@! TF.ProjectId,OF_link_CATV_tester-Aleksejsm,4f465f6c-696e-46b5-9f43-4154565f7465,rev?*
G04 #@! TF.SameCoordinates,Original*
G04 #@! TF.FileFunction,Legend,Bot*
G04 #@! TF.FilePolarity,Positive*
%FSLAX46Y46*%
G04 Gerber Fmt 4.6, Leading zero omitted, Abs format (unit mm)*
G04 Created by KiCad (PCBNEW (5.1.0)-1) date 2019-04-11 14:20:27*
%MOMM*%
%LPD*%
G04 APERTURE LIST*
%ADD10C,0.150000*%
%ADD11C,0.300000*%
G04 APERTURE END LIST*
D10*
X162980428Y-168917880D02*
X163313761Y-168441690D01*
X163551857Y-168917880D02*
X163551857Y-167917880D01*
X163170904Y-167917880D01*
X163075666Y-167965500D01*
X163028047Y-168013119D01*
X162980428Y-168108357D01*
X162980428Y-168251214D01*
X163028047Y-168346452D01*
X163075666Y-168394071D01*
X163170904Y-168441690D01*
X163551857Y-168441690D01*
X162170904Y-168870261D02*
X162266142Y-168917880D01*
X162456619Y-168917880D01*
X162551857Y-168870261D01*
X162599476Y-168775023D01*
X162599476Y-168394071D01*
X162551857Y-168298833D01*
X162456619Y-168251214D01*
X162266142Y-168251214D01*
X162170904Y-168298833D01*
X162123285Y-168394071D01*
X162123285Y-168489309D01*
X162599476Y-168584547D01*
X161789952Y-168251214D02*
X161551857Y-168917880D01*
X161313761Y-168251214D01*
X159647095Y-168917880D02*
X160218523Y-168917880D01*
X159932809Y-168917880D02*
X159932809Y-167917880D01*
X160028047Y-168060738D01*
X160123285Y-168155976D01*
X160218523Y-168203595D01*
X159218523Y-168822642D02*
X159170904Y-168870261D01*
X159218523Y-168917880D01*
X159266142Y-168870261D01*
X159218523Y-168822642D01*
X159218523Y-168917880D01*
X158551857Y-167917880D02*
X158456619Y-167917880D01*
X158361380Y-167965500D01*
X158313761Y-168013119D01*
X158266142Y-168108357D01*
X158218523Y-168298833D01*
X158218523Y-168536928D01*
X158266142Y-168727404D01*
X158313761Y-168822642D01*
X158361380Y-168870261D01*
X158456619Y-168917880D01*
X158551857Y-168917880D01*
X158647095Y-168870261D01*
X158694714Y-168822642D01*
X158742333Y-168727404D01*
X158789952Y-168536928D01*
X158789952Y-168298833D01*
X158742333Y-168108357D01*
X158694714Y-168013119D01*
X158647095Y-167965500D01*
X158551857Y-167917880D01*
D11*
X152303142Y-151151142D02*
X151922190Y-151151142D01*
X151731714Y-151294000D01*
X151541238Y-151579714D01*
X151446000Y-152151142D01*
X151446000Y-153151142D01*
X151541238Y-153722571D01*
X151731714Y-154008285D01*
X151922190Y-154151142D01*
X152303142Y-154151142D01*
X152493619Y-154008285D01*
X152684095Y-153722571D01*
X152779333Y-153151142D01*
X152779333Y-152151142D01*
X152684095Y-151579714D01*
X152493619Y-151294000D01*
X152303142Y-151151142D01*
X150588857Y-152151142D02*
X150588857Y-155151142D01*
X150588857Y-152294000D02*
X150398380Y-152151142D01*
X150017428Y-152151142D01*
X149826952Y-152294000D01*
X149731714Y-152436857D01*
X149636476Y-152722571D01*
X149636476Y-153579714D01*
X149731714Y-153865428D01*
X149826952Y-154008285D01*
X150017428Y-154151142D01*
X150398380Y-154151142D01*
X150588857Y-154008285D01*
X149065047Y-152151142D02*
X148303142Y-152151142D01*
X148779333Y-151151142D02*
X148779333Y-153722571D01*
X148684095Y-154008285D01*
X148493619Y-154151142D01*
X148303142Y-154151142D01*
X147636476Y-154151142D02*
X147636476Y-152151142D01*
X147636476Y-151151142D02*
X147731714Y-151294000D01*
X147636476Y-151436857D01*
X147541238Y-151294000D01*
X147636476Y-151151142D01*
X147636476Y-151436857D01*
X145826952Y-154008285D02*
X146017428Y-154151142D01*
X146398380Y-154151142D01*
X146588857Y-154008285D01*
X146684095Y-153865428D01*
X146779333Y-153579714D01*
X146779333Y-152722571D01*
X146684095Y-152436857D01*
X146588857Y-152294000D01*
X146398380Y-152151142D01*
X146017428Y-152151142D01*
X145826952Y-152294000D01*
X144112666Y-154151142D02*
X144112666Y-152579714D01*
X144207904Y-152294000D01*
X144398380Y-152151142D01*
X144779333Y-152151142D01*
X144969809Y-152294000D01*
X144112666Y-154008285D02*
X144303142Y-154151142D01*
X144779333Y-154151142D01*
X144969809Y-154008285D01*
X145065047Y-153722571D01*
X145065047Y-153436857D01*
X144969809Y-153151142D01*
X144779333Y-153008285D01*
X144303142Y-153008285D01*
X144112666Y-152865428D01*
X142874571Y-154151142D02*
X143065047Y-154008285D01*
X143160285Y-153722571D01*
X143160285Y-151151142D01*
X140874571Y-152151142D02*
X140112666Y-152151142D01*
X140588857Y-154151142D02*
X140588857Y-151579714D01*
X140493619Y-151294000D01*
X140303142Y-151151142D01*
X140112666Y-151151142D01*
X139446000Y-154151142D02*
X139446000Y-152151142D01*
X139446000Y-151151142D02*
X139541238Y-151294000D01*
X139446000Y-151436857D01*
X139350761Y-151294000D01*
X139446000Y-151151142D01*
X139446000Y-151436857D01*
X138493619Y-154151142D02*
X138493619Y-151151142D01*
X138493619Y-152294000D02*
X138303142Y-152151142D01*
X137922190Y-152151142D01*
X137731714Y-152294000D01*
X137636476Y-152436857D01*
X137541238Y-152722571D01*
X137541238Y-153579714D01*
X137636476Y-153865428D01*
X137731714Y-154008285D01*
X137922190Y-154151142D01*
X138303142Y-154151142D01*
X138493619Y-154008285D01*
X135922190Y-154008285D02*
X136112666Y-154151142D01*
X136493619Y-154151142D01*
X136684095Y-154008285D01*
X136779333Y-153722571D01*
X136779333Y-152579714D01*
X136684095Y-152294000D01*
X136493619Y-152151142D01*
X136112666Y-152151142D01*
X135922190Y-152294000D01*
X135826952Y-152579714D01*
X135826952Y-152865428D01*
X136779333Y-153151142D01*
X134969809Y-154151142D02*
X134969809Y-152151142D01*
X134969809Y-152722571D02*
X134874571Y-152436857D01*
X134779333Y-152294000D01*
X134588857Y-152151142D01*
X134398380Y-152151142D01*
X131922190Y-154151142D02*
X132112666Y-154008285D01*
X132207904Y-153722571D01*
X132207904Y-151151142D01*
X131160285Y-154151142D02*
X131160285Y-152151142D01*
X131160285Y-151151142D02*
X131255523Y-151294000D01*
X131160285Y-151436857D01*
X131065047Y-151294000D01*
X131160285Y-151151142D01*
X131160285Y-151436857D01*
X130207904Y-152151142D02*
X130207904Y-154151142D01*
X130207904Y-152436857D02*
X130112666Y-152294000D01*
X129922190Y-152151142D01*
X129636476Y-152151142D01*
X129446000Y-152294000D01*
X129350761Y-152579714D01*
X129350761Y-154151142D01*
X128398380Y-154151142D02*
X128398380Y-151151142D01*
X128207904Y-153008285D02*
X127636476Y-154151142D01*
X127636476Y-152151142D02*
X128398380Y-153294000D01*
X154112666Y-158951142D02*
X154112666Y-157379714D01*
X154207904Y-157094000D01*
X154398380Y-156951142D01*
X154779333Y-156951142D01*
X154969809Y-157094000D01*
X154112666Y-158808285D02*
X154303142Y-158951142D01*
X154779333Y-158951142D01*
X154969809Y-158808285D01*
X155065047Y-158522571D01*
X155065047Y-158236857D01*
X154969809Y-157951142D01*
X154779333Y-157808285D01*
X154303142Y-157808285D01*
X154112666Y-157665428D01*
X153160285Y-156951142D02*
X153160285Y-158951142D01*
X153160285Y-157236857D02*
X153065047Y-157094000D01*
X152874571Y-156951142D01*
X152588857Y-156951142D01*
X152398380Y-157094000D01*
X152303142Y-157379714D01*
X152303142Y-158951142D01*
X150493619Y-158951142D02*
X150493619Y-155951142D01*
X150493619Y-158808285D02*
X150684095Y-158951142D01*
X151065047Y-158951142D01*
X151255523Y-158808285D01*
X151350761Y-158665428D01*
X151446000Y-158379714D01*
X151446000Y-157522571D01*
X151350761Y-157236857D01*
X151255523Y-157094000D01*
X151065047Y-156951142D01*
X150684095Y-156951142D01*
X150493619Y-157094000D01*
X146874571Y-158665428D02*
X146969809Y-158808285D01*
X147255523Y-158951142D01*
X147446000Y-158951142D01*
X147731714Y-158808285D01*
X147922190Y-158522571D01*
X148017428Y-158236857D01*
X148112666Y-157665428D01*
X148112666Y-157236857D01*
X148017428Y-156665428D01*
X147922190Y-156379714D01*
X147731714Y-156094000D01*
X147446000Y-155951142D01*
X147255523Y-155951142D01*
X146969809Y-156094000D01*
X146874571Y-156236857D01*
X146112666Y-158094000D02*
X145160285Y-158094000D01*
X146303142Y-158951142D02*
X145636476Y-155951142D01*
X144969809Y-158951142D01*
X144588857Y-155951142D02*
X143446000Y-155951142D01*
X144017428Y-158951142D02*
X144017428Y-155951142D01*
X143065047Y-155951142D02*
X142398380Y-158951142D01*
X141731714Y-155951142D01*
X139826952Y-156951142D02*
X139065047Y-156951142D01*
X139541238Y-155951142D02*
X139541238Y-158522571D01*
X139446000Y-158808285D01*
X139255523Y-158951142D01*
X139065047Y-158951142D01*
X137636476Y-158808285D02*
X137826952Y-158951142D01*
X138207904Y-158951142D01*
X138398380Y-158808285D01*
X138493619Y-158522571D01*
X138493619Y-157379714D01*
X138398380Y-157094000D01*
X138207904Y-156951142D01*
X137826952Y-156951142D01*
X137636476Y-157094000D01*
X137541238Y-157379714D01*
X137541238Y-157665428D01*
X138493619Y-157951142D01*
X136779333Y-158808285D02*
X136588857Y-158951142D01*
X136207904Y-158951142D01*
X136017428Y-158808285D01*
X135922190Y-158522571D01*
X135922190Y-158379714D01*
X136017428Y-158094000D01*
X136207904Y-157951142D01*
X136493619Y-157951142D01*
X136684095Y-157808285D01*
X136779333Y-157522571D01*
X136779333Y-157379714D01*
X136684095Y-157094000D01*
X136493619Y-156951142D01*
X136207904Y-156951142D01*
X136017428Y-157094000D01*
X135350761Y-156951142D02*
X134588857Y-156951142D01*
X135065047Y-155951142D02*
X135065047Y-158522571D01*
X134969809Y-158808285D01*
X134779333Y-158951142D01*
X134588857Y-158951142D01*
X131541238Y-158951142D02*
X131541238Y-155951142D01*
X131541238Y-158808285D02*
X131731714Y-158951142D01*
X132112666Y-158951142D01*
X132303142Y-158808285D01*
X132398380Y-158665428D01*
X132493619Y-158379714D01*
X132493619Y-157522571D01*
X132398380Y-157236857D01*
X132303142Y-157094000D01*
X132112666Y-156951142D01*
X131731714Y-156951142D01*
X131541238Y-157094000D01*
X129826952Y-158808285D02*
X130017428Y-158951142D01*
X130398380Y-158951142D01*
X130588857Y-158808285D01*
X130684095Y-158522571D01*
X130684095Y-157379714D01*
X130588857Y-157094000D01*
X130398380Y-156951142D01*
X130017428Y-156951142D01*
X129826952Y-157094000D01*
X129731714Y-157379714D01*
X129731714Y-157665428D01*
X130684095Y-157951142D01*
X129065047Y-156951142D02*
X128588857Y-158951142D01*
X128112666Y-156951142D01*
X127350761Y-158951142D02*
X127350761Y-156951142D01*
X127350761Y-155951142D02*
X127446000Y-156094000D01*
X127350761Y-156236857D01*
X127255523Y-156094000D01*
X127350761Y-155951142D01*
X127350761Y-156236857D01*
X125541238Y-158808285D02*
X125731714Y-158951142D01*
X126112666Y-158951142D01*
X126303142Y-158808285D01*
X126398380Y-158665428D01*
X126493619Y-158379714D01*
X126493619Y-157522571D01*
X126398380Y-157236857D01*
X126303142Y-157094000D01*
X126112666Y-156951142D01*
X125731714Y-156951142D01*
X125541238Y-157094000D01*
X123922190Y-158808285D02*
X124112666Y-158951142D01*
X124493619Y-158951142D01*
X124684095Y-158808285D01*
X124779333Y-158522571D01*
X124779333Y-157379714D01*
X124684095Y-157094000D01*
X124493619Y-156951142D01*
X124112666Y-156951142D01*
X123922190Y-157094000D01*
X123826952Y-157379714D01*
X123826952Y-157665428D01*
X124779333Y-157951142D01*
M02*
