M48
; DRILL file {KiCad (5.1.0)-1} date 13.05.2019 21:51:15
; FORMAT={-:-/ absolute / inch / decimal}
; #@! TF.CreationDate,2019-05-13T21:51:15+03:00
; #@! TF.GenerationSoftware,Kicad,Pcbnew,(5.1.0)-1
; #@! TF.FileFunction,Plated,1,2,PTH
FMAT,2
INCH
T1C0.0157
T2C0.0394
T3C0.0472
T4C0.0630
T5C0.0787
%
G90
G05
T1
X2.97Y-4.155
X3.025Y-5.905
X3.0806Y-3.9631
X3.09Y-5.85
X3.105Y-3.805
X3.15Y-5.885
X3.1575Y-3.96
X3.207Y-3.8207
X3.22Y-4.04
X3.255Y-4.995
X3.26Y-4.165
X3.26Y-4.265
X3.285Y-5.805
X3.29Y-3.59
X3.32Y-4.94
X3.3235Y-5.745
X3.39Y-4.955
X3.42Y-3.68
X3.425Y-3.46
X3.4283Y-4.5802
X3.465Y-3.475
X3.475Y-4.665
X3.48Y-3.81
X3.505Y-3.505
X3.505Y-3.85
X3.51Y-3.93
X3.55Y-4.76
X3.55Y-4.8
X3.56Y-4.925
X3.5726Y-3.665
X3.585Y-4.025
X3.63Y-4.925
X3.655Y-4.615
X3.6687Y-3.5013
X3.67Y-4.08
X3.675Y-5.27
X3.6792Y-3.8432
X3.7076Y-3.8783
X3.7076Y-3.4953
X3.73Y-5.345
X3.735Y-6.01
X3.74Y-4.5516
X3.7826Y-4.335
X3.785Y-6.025
X3.815Y-3.745
X3.83Y-3.39
X3.8488Y-5.9738
X3.8666Y-3.8466
X3.8726Y-3.685
X3.885Y-4.5806
X3.885Y-4.63
X3.915Y-5.77
X3.97Y-4.08
X3.97Y-4.43
X4.0119Y-5.5419
X4.0325Y-3.5575
X4.0925Y-3.535
X4.095Y-5.2075
X4.095Y-5.2775
X4.095Y-5.3325
X4.095Y-5.3975
X4.12Y-5.555
X4.16Y-5.685
X4.185Y-5.62
X4.19Y-5.88
X4.19Y-5.945
X4.2272Y-3.6524
X4.235Y-4.465
X4.235Y-4.535
X4.25Y-4.25
X4.255Y-4.64
X4.26Y-4.6
X4.26Y-4.68
X4.28Y-4.2
X4.3076Y-3.6394
X4.325Y-3.98
X4.3252Y-3.6042
X4.38Y-4.875
X4.385Y-4.83
X4.39Y-4.925
X4.395Y-3.535
X4.42Y-3.98
X4.495Y-4.095
X4.51Y-5.305
X4.52Y-3.985
X4.56Y-4.49
X4.57Y-4.095
X4.5875Y-3.4382
X4.625Y-3.985
X4.6403Y-3.4203
X4.66Y-3.46
X4.66Y-3.52
X4.67Y-5.16
X4.675Y-5.09
X4.7123Y-3.6729
X4.715Y-3.99
X4.725Y-3.83
X4.7275Y-4.7725
X4.7275Y-4.8425
X4.7275Y-4.8975
X4.7275Y-4.9435
X4.74Y-5.95
X4.74Y-6.21
X4.74Y-6.545
X4.7401Y-6.3601
X4.7402Y-3.6227
X4.78Y-3.87
X4.79Y-4.005
X4.82Y-3.86
X4.8475Y-4.455
X4.8475Y-4.525
X4.8475Y-4.58
X4.8475Y-4.645
X4.9625Y-5.22
X4.98Y-5.5625
X5.01Y-3.69
X5.015Y-3.6
X5.0425Y-4.745
X5.069Y-5.121
X5.07Y-3.555
X5.115Y-3.76
X5.12Y-3.6
X5.155Y-3.87
X5.1675Y-4.8475
X5.195Y-3.91
X5.205Y-5.12
X5.23Y-3.87
X5.2623Y-4.5698
X5.27Y-3.91
X5.285Y-5.45
X5.2875Y-4.3825
X5.295Y-5.125
X5.305Y-3.87
X5.335Y-3.75
X5.3575Y-4.3875
X5.3575Y-4.775
X5.3625Y-4.706
X5.7Y-4.23
X5.7225Y-4.5475
X5.755Y-5.2825
X5.7775Y-5.445
X5.79Y-5.115
X5.8025Y-4.7
X5.935Y-4.7075
X5.9575Y-5.12
X6.035Y-5.1225
X6.04Y-4.24
X6.07Y-4.6225
X6.075Y-5.595
X6.2624Y-5.9574
X6.2625Y-5.7725
X6.2625Y-6.1075
X6.2625Y-6.3675
X6.2974Y-3.7824
X6.2975Y-4.26
X6.2975Y-3.5975
X6.2975Y-4.07
T2
X3.6725Y-6.4575
X3.6725Y-6.5575
X3.7725Y-6.4575
X3.7725Y-6.5575
X3.8725Y-6.4575
X3.8725Y-6.5575
X3.9725Y-6.4575
X3.9725Y-6.5575
X4.45Y-5.64
X4.45Y-5.74
X4.45Y-5.84
X4.45Y-5.94
X4.45Y-6.04
X4.45Y-6.14
X4.45Y-6.24
X4.45Y-6.34
X4.45Y-6.44
X4.45Y-6.54
X4.45Y-6.64
X3.16Y-3.1775
X3.26Y-3.1775
X3.36Y-3.1775
X4.005Y-4.775
X4.005Y-4.875
X4.005Y-4.975
X3.0225Y-4.5125
X3.0225Y-4.6125
X3.0225Y-4.7125
X3.0225Y-4.8125
X3.1225Y-4.5125
X3.1225Y-4.6125
X3.1225Y-4.7125
X3.1225Y-4.8125
X4.47Y-3.175
X4.57Y-3.175
X4.67Y-3.175
X4.77Y-3.175
X4.87Y-3.175
X4.97Y-3.175
X5.07Y-3.175
X5.17Y-3.175
X5.27Y-3.175
X5.37Y-3.175
X6.5575Y-3.5025
X6.5575Y-3.6025
X6.5575Y-3.7025
X6.5575Y-3.8025
X6.5575Y-3.9025
X6.5575Y-4.0025
X6.5575Y-4.1025
X6.5575Y-4.2025
X6.5575Y-4.3025
X6.5575Y-4.4025
X6.5575Y-4.5025
X6.5575Y-4.6025
X3.1825Y-6.4625
X3.1825Y-6.5625
X3.2825Y-6.4625
X3.2825Y-6.5625
X3.3825Y-6.4625
X3.3825Y-6.5625
X3.4825Y-6.4625
X3.4825Y-6.5625
X4.0725Y-3.175
X4.1725Y-3.175
X4.2725Y-3.175
X3.6675Y-3.175
X3.7675Y-3.175
X3.8675Y-3.175
X4.875Y-4.2675
X4.975Y-4.2675
X5.075Y-4.2675
X6.545Y-5.35
X6.545Y-5.45
X6.545Y-5.55
X6.545Y-5.65
X6.545Y-5.75
X6.545Y-5.85
X6.545Y-5.95
X6.545Y-6.05
X6.545Y-6.15
X6.545Y-6.25
X6.545Y-6.35
X6.545Y-6.45
T3
X3.215Y-5.4
X3.215Y-5.5378
T4
X4.966Y-5.36
X5.344Y-5.36
X5.6785Y-4.46
X6.0565Y-4.46
X5.711Y-5.36
X6.089Y-5.36
T5
X2.99Y-3.185
X2.9925Y-6.6125
X6.635Y-6.635
X6.645Y-3.195
T0
M30
