G04 #@! TF.GenerationSoftware,KiCad,Pcbnew,(5.1.0)-1*
G04 #@! TF.CreationDate,2019-05-13T21:51:13+03:00*
G04 #@! TF.ProjectId,OF_link_CATV_tester-Aleksejsm,4f465f6c-696e-46b5-9f43-4154565f7465,rev?*
G04 #@! TF.SameCoordinates,Original*
G04 #@! TF.FileFunction,Soldermask,Bot*
G04 #@! TF.FilePolarity,Negative*
%FSLAX46Y46*%
G04 Gerber Fmt 4.6, Leading zero omitted, Abs format (unit mm)*
G04 Created by KiCad (PCBNEW (5.1.0)-1) date 2019-05-13 21:51:13*
%MOMM*%
%LPD*%
G04 APERTURE LIST*
%ADD10R,1.700000X1.700000*%
%ADD11O,1.700000X1.700000*%
%ADD12C,1.600000*%
%ADD13C,2.400000*%
%ADD14R,2.400000X2.400000*%
G04 APERTURE END LIST*
D10*
X123825000Y-108394500D03*
D11*
X126365000Y-108394500D03*
X128905000Y-108394500D03*
X80264000Y-80708500D03*
X82804000Y-80708500D03*
D10*
X85344000Y-80708500D03*
D11*
X93154500Y-80645000D03*
X95694500Y-80645000D03*
D10*
X98234500Y-80645000D03*
D11*
X108521500Y-80645000D03*
X105981500Y-80645000D03*
D10*
X103441500Y-80645000D03*
D11*
X76771500Y-114617500D03*
X79311500Y-114617500D03*
X76771500Y-117157500D03*
X79311500Y-117157500D03*
X76771500Y-119697500D03*
X79311500Y-119697500D03*
X76771500Y-122237500D03*
D10*
X79311500Y-122237500D03*
D11*
X93281500Y-166560500D03*
X93281500Y-164020500D03*
X95821500Y-166560500D03*
X95821500Y-164020500D03*
X98361500Y-166560500D03*
X98361500Y-164020500D03*
X100901500Y-166560500D03*
D10*
X100901500Y-164020500D03*
D11*
X80835500Y-166687500D03*
X80835500Y-164147500D03*
X83375500Y-166687500D03*
X83375500Y-164147500D03*
X85915500Y-166687500D03*
X85915500Y-164147500D03*
X88455500Y-166687500D03*
D10*
X88455500Y-164147500D03*
D11*
X113030000Y-168656000D03*
X113030000Y-166116000D03*
X113030000Y-163576000D03*
X113030000Y-161036000D03*
X113030000Y-158496000D03*
X113030000Y-155956000D03*
X113030000Y-153416000D03*
X113030000Y-150876000D03*
X113030000Y-148336000D03*
X113030000Y-145796000D03*
D10*
X113030000Y-143256000D03*
D12*
X126137000Y-136144000D03*
X135737000Y-136144000D03*
X153834500Y-113284000D03*
X144234500Y-113284000D03*
X145060000Y-136144000D03*
X154660000Y-136144000D03*
D11*
X166560500Y-116903500D03*
X166560500Y-114363500D03*
X166560500Y-111823500D03*
X166560500Y-109283500D03*
X166560500Y-106743500D03*
X166560500Y-104203500D03*
X166560500Y-101663500D03*
X166560500Y-99123500D03*
X166560500Y-96583500D03*
X166560500Y-94043500D03*
X166560500Y-91503500D03*
D10*
X166560500Y-88963500D03*
D11*
X166243000Y-135890000D03*
X166243000Y-138430000D03*
X166243000Y-140970000D03*
X166243000Y-143510000D03*
X166243000Y-146050000D03*
X166243000Y-148590000D03*
X166243000Y-151130000D03*
X166243000Y-153670000D03*
X166243000Y-156210000D03*
X166243000Y-158750000D03*
X166243000Y-161290000D03*
D10*
X166243000Y-163830000D03*
D11*
X101727000Y-121285000D03*
X101727000Y-123825000D03*
D10*
X101727000Y-126365000D03*
D13*
X81661000Y-140660000D03*
D14*
X81661000Y-137160000D03*
D11*
X136398000Y-80645000D03*
X133858000Y-80645000D03*
X131318000Y-80645000D03*
X128778000Y-80645000D03*
X126238000Y-80645000D03*
X123698000Y-80645000D03*
X121158000Y-80645000D03*
X118618000Y-80645000D03*
X116078000Y-80645000D03*
D10*
X113538000Y-80645000D03*
M02*
