%FSLAX45Y45*%
G04 Gerber Fmt 4.5, Leading zero omitted, Abs format (unit mm)*
G04 Created by KiCad (PCBNEW (5.1.0)-1) date 2019-05-13 21:51:19*
%MOMM*%
%LPD*%
G04 APERTURE LIST*
%ADD10C,0.100000*%
%ADD11C,0.200000*%
%ADD12C,0.300000*%
G04 APERTURE END LIST*
D10*
X7226300Y-8293100D02*
G75*
G02X7772400Y-7747000I546100J0D01*
G01*
X16675100Y-7747000D02*
G75*
G02X17221200Y-8293100I0J-546100D01*
G01*
X17221200Y-16649700D02*
G75*
G02X16675100Y-17195800I-546100J0D01*
G01*
X7772400Y-17195800D02*
G75*
G02X7226300Y-16649700I0J546100D01*
G01*
X7772400Y-17195800D02*
X16675100Y-17195800D01*
X7226300Y-8293100D02*
X7226300Y-16649700D01*
X16675100Y-7747000D02*
X7772400Y-7747000D01*
X17221200Y-16649700D02*
X17221200Y-8293100D01*
D11*
X7523800Y-10533700D02*
X7563800Y-10573700D01*
X7563800Y-10533700D02*
X7523800Y-10573700D01*
X7663500Y-14978700D02*
X7703500Y-15018700D01*
X7703500Y-14978700D02*
X7663500Y-15018700D01*
X7804800Y-10046350D02*
X7844800Y-10086350D01*
X7844800Y-10046350D02*
X7804800Y-10086350D01*
X7828600Y-14839000D02*
X7868600Y-14879000D01*
X7868600Y-14839000D02*
X7828600Y-14879000D01*
X7866700Y-9644700D02*
X7906700Y-9684700D01*
X7906700Y-9644700D02*
X7866700Y-9684700D01*
X7981000Y-14927900D02*
X8021000Y-14967900D01*
X8021000Y-14927900D02*
X7981000Y-14967900D01*
X8000050Y-10038400D02*
X8040050Y-10078400D01*
X8040050Y-10038400D02*
X8000050Y-10078400D01*
X8125800Y-9684700D02*
X8165800Y-9724700D01*
X8165800Y-9684700D02*
X8125800Y-9724700D01*
X8158800Y-10241600D02*
X8198800Y-10281600D01*
X8198800Y-10241600D02*
X8158800Y-10281600D01*
X8247700Y-12667300D02*
X8287700Y-12707300D01*
X8287700Y-12667300D02*
X8247700Y-12707300D01*
X8260400Y-10559100D02*
X8300400Y-10599100D01*
X8300400Y-10559100D02*
X8260400Y-10599100D01*
X8260400Y-10813100D02*
X8300400Y-10853100D01*
X8300400Y-10813100D02*
X8260400Y-10853100D01*
X8323900Y-14724700D02*
X8363900Y-14764700D01*
X8363900Y-14724700D02*
X8323900Y-14764700D01*
X8336600Y-9098600D02*
X8376600Y-9138600D01*
X8376600Y-9098600D02*
X8336600Y-9138600D01*
X8412800Y-12527600D02*
X8452800Y-12567600D01*
X8452800Y-12527600D02*
X8412800Y-12567600D01*
X8421699Y-14572300D02*
X8461699Y-14612300D01*
X8461699Y-14572300D02*
X8421699Y-14612300D01*
X8590600Y-12565700D02*
X8630600Y-12605700D01*
X8630600Y-12565700D02*
X8590600Y-12605700D01*
X8666800Y-9327200D02*
X8706800Y-9367200D01*
X8706800Y-9327200D02*
X8666800Y-9367200D01*
X8679500Y-8768400D02*
X8719500Y-8808400D01*
X8719500Y-8768400D02*
X8679500Y-8808400D01*
X8687796Y-11613601D02*
X8727796Y-11653601D01*
X8727796Y-11613601D02*
X8687796Y-11653601D01*
X8781100Y-8806500D02*
X8821100Y-8846500D01*
X8821100Y-8806500D02*
X8781100Y-8846500D01*
X8806500Y-11829100D02*
X8846500Y-11869100D01*
X8846500Y-11829100D02*
X8806500Y-11869100D01*
X8819200Y-9657400D02*
X8859200Y-9697400D01*
X8859200Y-9657400D02*
X8819200Y-9697400D01*
X8882700Y-8882700D02*
X8922700Y-8922700D01*
X8922700Y-8882700D02*
X8882700Y-8922700D01*
X8882700Y-9759000D02*
X8922700Y-9799000D01*
X8922700Y-9759000D02*
X8882700Y-9799000D01*
X8895400Y-9962200D02*
X8935400Y-10002200D01*
X8935400Y-9962200D02*
X8895400Y-10002200D01*
X8997000Y-12070400D02*
X9037000Y-12110400D01*
X9037000Y-12070400D02*
X8997000Y-12110400D01*
X8997000Y-12172000D02*
X9037000Y-12212000D01*
X9037000Y-12172000D02*
X8997000Y-12212000D01*
X9022400Y-12489500D02*
X9062400Y-12529500D01*
X9062400Y-12489500D02*
X9022400Y-12529500D01*
X9054448Y-9289100D02*
X9094448Y-9329100D01*
X9094448Y-9289100D02*
X9054448Y-9329100D01*
X9085900Y-10203500D02*
X9125900Y-10243500D01*
X9125900Y-10203500D02*
X9085900Y-10243500D01*
X9200200Y-12489500D02*
X9240200Y-12529500D01*
X9240200Y-12489500D02*
X9200200Y-12529500D01*
X9263700Y-11702100D02*
X9303700Y-11742100D01*
X9303700Y-11702100D02*
X9263700Y-11742100D01*
X9298550Y-8873250D02*
X9338550Y-8913250D01*
X9338550Y-8873250D02*
X9298550Y-8913250D01*
X9301800Y-10343200D02*
X9341800Y-10383200D01*
X9341800Y-10343200D02*
X9301800Y-10383200D01*
X9314500Y-13365800D02*
X9354500Y-13405800D01*
X9354500Y-13365800D02*
X9314500Y-13405800D01*
X9325248Y-9741751D02*
X9365248Y-9781751D01*
X9365248Y-9741751D02*
X9325248Y-9781751D01*
X9397391Y-9830783D02*
X9437391Y-9870783D01*
X9437391Y-9830783D02*
X9397391Y-9870783D01*
X9397410Y-8858183D02*
X9437410Y-8898183D01*
X9437410Y-8858183D02*
X9397410Y-8898183D01*
X9454200Y-13556300D02*
X9494200Y-13596300D01*
X9494200Y-13556300D02*
X9454200Y-13596300D01*
X9466900Y-15245400D02*
X9506900Y-15285400D01*
X9506900Y-15245400D02*
X9466900Y-15285400D01*
X9479600Y-11541100D02*
X9519600Y-11581100D01*
X9519600Y-11541100D02*
X9479600Y-11581100D01*
X9587799Y-10990900D02*
X9627799Y-11030900D01*
X9627799Y-10990900D02*
X9587799Y-11030900D01*
X9593900Y-15283500D02*
X9633900Y-15323500D01*
X9633900Y-15283500D02*
X9593900Y-15323500D01*
X9670100Y-9492300D02*
X9710100Y-9532300D01*
X9710100Y-9492300D02*
X9670100Y-9532300D01*
X9708200Y-8590600D02*
X9748200Y-8630600D01*
X9748200Y-8590600D02*
X9708200Y-8630600D01*
X9756000Y-15153500D02*
X9796000Y-15193500D01*
X9796000Y-15153500D02*
X9756000Y-15193500D01*
X9801200Y-9750400D02*
X9841200Y-9790400D01*
X9841200Y-9750400D02*
X9801200Y-9790400D01*
X9816301Y-9339900D02*
X9856301Y-9379900D01*
X9856301Y-9339900D02*
X9816301Y-9379900D01*
X9847899Y-11614686D02*
X9887899Y-11654686D01*
X9887899Y-11614686D02*
X9847899Y-11654686D01*
X9847900Y-11740200D02*
X9887900Y-11780200D01*
X9887900Y-11740200D02*
X9847900Y-11780200D01*
X9924100Y-14635800D02*
X9964100Y-14675800D01*
X9964100Y-14635800D02*
X9924100Y-14675800D01*
X10063800Y-10343200D02*
X10103800Y-10383200D01*
X10103800Y-10343200D02*
X10063800Y-10383200D01*
X10063800Y-11232200D02*
X10103800Y-11272200D01*
X10103800Y-11232200D02*
X10063800Y-11272200D01*
X10170100Y-14056300D02*
X10210100Y-14096300D01*
X10210100Y-14056300D02*
X10170100Y-14096300D01*
X10222550Y-9016050D02*
X10262550Y-9056050D01*
X10262550Y-9016050D02*
X10222550Y-9056050D01*
X10374950Y-8958900D02*
X10414950Y-8998900D01*
X10414950Y-8958900D02*
X10374950Y-8998900D01*
X10381300Y-13207050D02*
X10421300Y-13247050D01*
X10421300Y-13207050D02*
X10381300Y-13247050D01*
X10381300Y-13384850D02*
X10421300Y-13424850D01*
X10421300Y-13384850D02*
X10381300Y-13424850D01*
X10381300Y-13524550D02*
X10421300Y-13564550D01*
X10421300Y-13524550D02*
X10381300Y-13564550D01*
X10381300Y-13689650D02*
X10421300Y-13729650D01*
X10421300Y-13689650D02*
X10381300Y-13729650D01*
X10444800Y-14089700D02*
X10484800Y-14129700D01*
X10484800Y-14089700D02*
X10444800Y-14129700D01*
X10546400Y-14419900D02*
X10586400Y-14459900D01*
X10586400Y-14419900D02*
X10546400Y-14459900D01*
X10609900Y-14254800D02*
X10649900Y-14294800D01*
X10649900Y-14254800D02*
X10609900Y-14294800D01*
X10622600Y-14915200D02*
X10662600Y-14955200D01*
X10662600Y-14915200D02*
X10622600Y-14955200D01*
X10622600Y-15080300D02*
X10662600Y-15120300D01*
X10662600Y-15080300D02*
X10622600Y-15120300D01*
X10717048Y-9257060D02*
X10757048Y-9297060D01*
X10757048Y-9257060D02*
X10717048Y-9297060D01*
X10736900Y-11321100D02*
X10776900Y-11361100D01*
X10776900Y-11321100D02*
X10736900Y-11361100D01*
X10736900Y-11498900D02*
X10776900Y-11538900D01*
X10776900Y-11498900D02*
X10736900Y-11538900D01*
X10775000Y-10775000D02*
X10815000Y-10815000D01*
X10815000Y-10775000D02*
X10775000Y-10815000D01*
X10787700Y-11765600D02*
X10827700Y-11805600D01*
X10827700Y-11765600D02*
X10787700Y-11805600D01*
X10800400Y-11664000D02*
X10840400Y-11704000D01*
X10840400Y-11664000D02*
X10800400Y-11704000D01*
X10800400Y-11867200D02*
X10840400Y-11907200D01*
X10840400Y-11867200D02*
X10800400Y-11907200D01*
X10851200Y-10648000D02*
X10891200Y-10688000D01*
X10891200Y-10648000D02*
X10851200Y-10688000D01*
X10921426Y-9224102D02*
X10961426Y-9264102D01*
X10961426Y-9224102D02*
X10921426Y-9264102D01*
X10965500Y-10089200D02*
X11005500Y-10129200D01*
X11005500Y-10089200D02*
X10965500Y-10129200D01*
X10965976Y-9134572D02*
X11005976Y-9174572D01*
X11005976Y-9134572D02*
X10965976Y-9174572D01*
X11105200Y-12362500D02*
X11145200Y-12402500D01*
X11145200Y-12362500D02*
X11105200Y-12402500D01*
X11117900Y-12248200D02*
X11157900Y-12288200D01*
X11157900Y-12248200D02*
X11117900Y-12288200D01*
X11130600Y-12489500D02*
X11170600Y-12529500D01*
X11170600Y-12489500D02*
X11130600Y-12529500D01*
X11143300Y-8958900D02*
X11183300Y-8998900D01*
X11183300Y-8958900D02*
X11143300Y-8998900D01*
X11206800Y-10089200D02*
X11246800Y-10129200D01*
X11246800Y-10089200D02*
X11206800Y-10129200D01*
X11397300Y-10381300D02*
X11437300Y-10421300D01*
X11437300Y-10381300D02*
X11397300Y-10421300D01*
X11435400Y-13454700D02*
X11475400Y-13494700D01*
X11475400Y-13454700D02*
X11435400Y-13494700D01*
X11460800Y-10101900D02*
X11500800Y-10141900D01*
X11500800Y-10101900D02*
X11460800Y-10141900D01*
X11562400Y-11384600D02*
X11602400Y-11424600D01*
X11602400Y-11384600D02*
X11562400Y-11424600D01*
X11587800Y-10381300D02*
X11627800Y-10421300D01*
X11627800Y-10381300D02*
X11587800Y-10421300D01*
X11632239Y-8713039D02*
X11672239Y-8753039D01*
X11672239Y-8713039D02*
X11632239Y-8753039D01*
X11727500Y-10101900D02*
X11767500Y-10141900D01*
X11767500Y-10101900D02*
X11727500Y-10141900D01*
X11766277Y-8667478D02*
X11806277Y-8707478D01*
X11806277Y-8667478D02*
X11766277Y-8707478D01*
X11816400Y-8768400D02*
X11856400Y-8808400D01*
X11856400Y-8768400D02*
X11816400Y-8808400D01*
X11816400Y-8920800D02*
X11856400Y-8960800D01*
X11856400Y-8920800D02*
X11816400Y-8960800D01*
X11841800Y-13086400D02*
X11881800Y-13126400D01*
X11881800Y-13086400D02*
X11841800Y-13126400D01*
X11854500Y-12908600D02*
X11894500Y-12948600D01*
X11894500Y-12908600D02*
X11854500Y-12948600D01*
X11949274Y-9309119D02*
X11989274Y-9349119D01*
X11989274Y-9309119D02*
X11949274Y-9349119D01*
X11956100Y-10114600D02*
X11996100Y-10154600D01*
X11996100Y-10114600D02*
X11956100Y-10154600D01*
X11981500Y-9708200D02*
X12021500Y-9748200D01*
X12021500Y-9708200D02*
X11981500Y-9748200D01*
X11987850Y-12102150D02*
X12027850Y-12142150D01*
X12027850Y-12102150D02*
X11987850Y-12142150D01*
X11987850Y-12279950D02*
X12027850Y-12319950D01*
X12027850Y-12279950D02*
X11987850Y-12319950D01*
X11987850Y-12419650D02*
X12027850Y-12459650D01*
X12027850Y-12419650D02*
X11987850Y-12459650D01*
X11987850Y-12536499D02*
X12027850Y-12576499D01*
X12027850Y-12536499D02*
X11987850Y-12576499D01*
X12019600Y-15093000D02*
X12059600Y-15133000D01*
X12059600Y-15093000D02*
X12019600Y-15133000D01*
X12019600Y-15753400D02*
X12059600Y-15793400D01*
X12059600Y-15753400D02*
X12019600Y-15793400D01*
X12019600Y-16604300D02*
X12059600Y-16644300D01*
X12059600Y-16604300D02*
X12019600Y-16644300D01*
X12019774Y-16134620D02*
X12059774Y-16174620D01*
X12059774Y-16134620D02*
X12019774Y-16174620D01*
X12020136Y-9181687D02*
X12060136Y-9221687D01*
X12060136Y-9181687D02*
X12020136Y-9221687D01*
X12121200Y-9809800D02*
X12161200Y-9849800D01*
X12161200Y-9809800D02*
X12121200Y-9849800D01*
X12146600Y-10152700D02*
X12186600Y-10192700D01*
X12186600Y-10152700D02*
X12146600Y-10192700D01*
X12222800Y-9784400D02*
X12262800Y-9824400D01*
X12262800Y-9784400D02*
X12222800Y-9824400D01*
X12292650Y-11295700D02*
X12332650Y-11335700D01*
X12332650Y-11295700D02*
X12292650Y-11335700D01*
X12292650Y-11473500D02*
X12332650Y-11513500D01*
X12332650Y-11473500D02*
X12292650Y-11513500D01*
X12292650Y-11613200D02*
X12332650Y-11653200D01*
X12332650Y-11613200D02*
X12292650Y-11653200D01*
X12292650Y-11778300D02*
X12332650Y-11818300D01*
X12332650Y-11778300D02*
X12292650Y-11818300D01*
X12584750Y-13238800D02*
X12624750Y-13278800D01*
X12624750Y-13238800D02*
X12584750Y-13278800D01*
X12629200Y-14108750D02*
X12669200Y-14148750D01*
X12669200Y-14108750D02*
X12629200Y-14148750D01*
X12705400Y-9352600D02*
X12745400Y-9392600D01*
X12745400Y-9352600D02*
X12705400Y-9392600D01*
X12718100Y-9124000D02*
X12758100Y-9164000D01*
X12758100Y-9124000D02*
X12718100Y-9164000D01*
X12787950Y-12032300D02*
X12827950Y-12072300D01*
X12827950Y-12032300D02*
X12787950Y-12072300D01*
X12855363Y-12987236D02*
X12895363Y-13027236D01*
X12895363Y-12987236D02*
X12855363Y-13027236D01*
X12857800Y-9009700D02*
X12897800Y-9049700D01*
X12897800Y-9009700D02*
X12857800Y-9049700D01*
X12972100Y-9530400D02*
X13012100Y-9570400D01*
X13012100Y-9530400D02*
X12972100Y-9570400D01*
X12984800Y-9124000D02*
X13024800Y-9164000D01*
X13024800Y-9124000D02*
X12984800Y-9164000D01*
X13073700Y-9809800D02*
X13113700Y-9849800D01*
X13113700Y-9809800D02*
X13073700Y-9849800D01*
X13105450Y-12292650D02*
X13145450Y-12332650D01*
X13145450Y-12292650D02*
X13105450Y-12332650D01*
X13175300Y-9911400D02*
X13215300Y-9951400D01*
X13215300Y-9911400D02*
X13175300Y-9951400D01*
X13200700Y-12984800D02*
X13240700Y-13024800D01*
X13240700Y-12984800D02*
X13200700Y-13024800D01*
X13264200Y-9809800D02*
X13304200Y-9849800D01*
X13304200Y-9809800D02*
X13264200Y-9849800D01*
X13346169Y-11587219D02*
X13386169Y-11627219D01*
X13386169Y-11587219D02*
X13346169Y-11627219D01*
X13365800Y-9911400D02*
X13405800Y-9951400D01*
X13405800Y-9911400D02*
X13365800Y-9951400D01*
X13403900Y-13823000D02*
X13443900Y-13863000D01*
X13443900Y-13823000D02*
X13403900Y-13863000D01*
X13410250Y-11111550D02*
X13450250Y-11151550D01*
X13450250Y-11111550D02*
X13410250Y-11151550D01*
X13429300Y-12997500D02*
X13469300Y-13037500D01*
X13469300Y-12997500D02*
X13429300Y-13037500D01*
X13454700Y-9809800D02*
X13494700Y-9849800D01*
X13494700Y-9809800D02*
X13454700Y-9849800D01*
X13530900Y-9505000D02*
X13570900Y-9545000D01*
X13570900Y-9505000D02*
X13530900Y-9545000D01*
X13588050Y-11124250D02*
X13628050Y-11164250D01*
X13628050Y-11124250D02*
X13588050Y-11164250D01*
X13588050Y-12108500D02*
X13628050Y-12148500D01*
X13628050Y-12108500D02*
X13588050Y-12148500D01*
X13600750Y-11933351D02*
X13640750Y-11973351D01*
X13640750Y-11933351D02*
X13600750Y-11973351D01*
X14458000Y-10724200D02*
X14498000Y-10764200D01*
X14498000Y-10724200D02*
X14458000Y-10764200D01*
X14515150Y-11530650D02*
X14555150Y-11570650D01*
X14555150Y-11530650D02*
X14515150Y-11570650D01*
X14597700Y-13397550D02*
X14637700Y-13437550D01*
X14637700Y-13397550D02*
X14597700Y-13437550D01*
X14654850Y-13810300D02*
X14694850Y-13850300D01*
X14694850Y-13810300D02*
X14654850Y-13850300D01*
X14686600Y-12972100D02*
X14726600Y-13012100D01*
X14726600Y-12972100D02*
X14686600Y-13012100D01*
X14718350Y-11918000D02*
X14758350Y-11958000D01*
X14758350Y-11918000D02*
X14718350Y-11958000D01*
X15054900Y-11937050D02*
X15094900Y-11977050D01*
X15094900Y-11937050D02*
X15054900Y-11977050D01*
X15112050Y-12984800D02*
X15152050Y-13024800D01*
X15152050Y-12984800D02*
X15112050Y-13024800D01*
X15308900Y-12991150D02*
X15348900Y-13031150D01*
X15348900Y-12991150D02*
X15308900Y-13031150D01*
X15321600Y-10749600D02*
X15361600Y-10789600D01*
X15361600Y-10749600D02*
X15321600Y-10789600D01*
X15397800Y-11721150D02*
X15437800Y-11761150D01*
X15437800Y-11721150D02*
X15397800Y-11761150D01*
X15410500Y-14191300D02*
X15450500Y-14231300D01*
X15450500Y-14191300D02*
X15410500Y-14231300D01*
X15886576Y-15111830D02*
X15926576Y-15151830D01*
X15926576Y-15111830D02*
X15886576Y-15151830D01*
X15886750Y-14642150D02*
X15926750Y-14682150D01*
X15926750Y-14642150D02*
X15886750Y-14682150D01*
X15886750Y-15493050D02*
X15926750Y-15533050D01*
X15926750Y-15493050D02*
X15886750Y-15533050D01*
X15886750Y-16153450D02*
X15926750Y-16193450D01*
X15926750Y-16153450D02*
X15886750Y-16193450D01*
X15975476Y-9587330D02*
X16015476Y-9627330D01*
X16015476Y-9587330D02*
X15975476Y-9627330D01*
X15975650Y-10800400D02*
X16015650Y-10840400D01*
X16015650Y-10800400D02*
X15975650Y-10840400D01*
X15975650Y-9117650D02*
X16015650Y-9157650D01*
X16015650Y-9117650D02*
X15975650Y-9157650D01*
X15975650Y-10317800D02*
X16015650Y-10357800D01*
X16015650Y-10317800D02*
X15975650Y-10357800D01*
X9378150Y-16402050D02*
G75*
G03X9378150Y-16402050I-50000J0D01*
G01*
X9378150Y-16656050D02*
G75*
G03X9378150Y-16656050I-50000J0D01*
G01*
X9632150Y-16402050D02*
G75*
G03X9632150Y-16402050I-50000J0D01*
G01*
X9632150Y-16656050D02*
G75*
G03X9632150Y-16656050I-50000J0D01*
G01*
X9886150Y-16402050D02*
G75*
G03X9886150Y-16402050I-50000J0D01*
G01*
X9886150Y-16656050D02*
G75*
G03X9886150Y-16656050I-50000J0D01*
G01*
X10140150Y-16402050D02*
G75*
G03X10140150Y-16402050I-50000J0D01*
G01*
X10140150Y-16656050D02*
G75*
G03X10140150Y-16656050I-50000J0D01*
G01*
X11353000Y-14325600D02*
G75*
G03X11353000Y-14325600I-50000J0D01*
G01*
X11353000Y-14579600D02*
G75*
G03X11353000Y-14579600I-50000J0D01*
G01*
X11353000Y-14833600D02*
G75*
G03X11353000Y-14833600I-50000J0D01*
G01*
X11353000Y-15087600D02*
G75*
G03X11353000Y-15087600I-50000J0D01*
G01*
X11353000Y-15341600D02*
G75*
G03X11353000Y-15341600I-50000J0D01*
G01*
X11353000Y-15595600D02*
G75*
G03X11353000Y-15595600I-50000J0D01*
G01*
X11353000Y-15849600D02*
G75*
G03X11353000Y-15849600I-50000J0D01*
G01*
X11353000Y-16103600D02*
G75*
G03X11353000Y-16103600I-50000J0D01*
G01*
X11353000Y-16357600D02*
G75*
G03X11353000Y-16357600I-50000J0D01*
G01*
X11353000Y-16611600D02*
G75*
G03X11353000Y-16611600I-50000J0D01*
G01*
X11353000Y-16865600D02*
G75*
G03X11353000Y-16865600I-50000J0D01*
G01*
X8076400Y-8070850D02*
G75*
G03X8076400Y-8070850I-50000J0D01*
G01*
X8330400Y-8070850D02*
G75*
G03X8330400Y-8070850I-50000J0D01*
G01*
X8584400Y-8070850D02*
G75*
G03X8584400Y-8070850I-50000J0D01*
G01*
X10222700Y-12128500D02*
G75*
G03X10222700Y-12128500I-50000J0D01*
G01*
X10222700Y-12382500D02*
G75*
G03X10222700Y-12382500I-50000J0D01*
G01*
X10222700Y-12636500D02*
G75*
G03X10222700Y-12636500I-50000J0D01*
G01*
X7727150Y-11461750D02*
G75*
G03X7727150Y-11461750I-50000J0D01*
G01*
X7727150Y-11715750D02*
G75*
G03X7727150Y-11715750I-50000J0D01*
G01*
X7727150Y-11969750D02*
G75*
G03X7727150Y-11969750I-50000J0D01*
G01*
X7727150Y-12223750D02*
G75*
G03X7727150Y-12223750I-50000J0D01*
G01*
X7981150Y-11461750D02*
G75*
G03X7981150Y-11461750I-50000J0D01*
G01*
X7981150Y-11715750D02*
G75*
G03X7981150Y-11715750I-50000J0D01*
G01*
X7981150Y-11969750D02*
G75*
G03X7981150Y-11969750I-50000J0D01*
G01*
X7981150Y-12223750D02*
G75*
G03X7981150Y-12223750I-50000J0D01*
G01*
X11403800Y-8064500D02*
G75*
G03X11403800Y-8064500I-50000J0D01*
G01*
X11657800Y-8064500D02*
G75*
G03X11657800Y-8064500I-50000J0D01*
G01*
X11911800Y-8064500D02*
G75*
G03X11911800Y-8064500I-50000J0D01*
G01*
X12165800Y-8064500D02*
G75*
G03X12165800Y-8064500I-50000J0D01*
G01*
X12419800Y-8064500D02*
G75*
G03X12419800Y-8064500I-50000J0D01*
G01*
X12673800Y-8064500D02*
G75*
G03X12673800Y-8064500I-50000J0D01*
G01*
X12927800Y-8064500D02*
G75*
G03X12927800Y-8064500I-50000J0D01*
G01*
X13181800Y-8064500D02*
G75*
G03X13181800Y-8064500I-50000J0D01*
G01*
X13435800Y-8064500D02*
G75*
G03X13435800Y-8064500I-50000J0D01*
G01*
X13689800Y-8064500D02*
G75*
G03X13689800Y-8064500I-50000J0D01*
G01*
X16706050Y-8896350D02*
G75*
G03X16706050Y-8896350I-50000J0D01*
G01*
X16706050Y-9150350D02*
G75*
G03X16706050Y-9150350I-50000J0D01*
G01*
X16706050Y-9404350D02*
G75*
G03X16706050Y-9404350I-50000J0D01*
G01*
X16706050Y-9658350D02*
G75*
G03X16706050Y-9658350I-50000J0D01*
G01*
X16706050Y-9912350D02*
G75*
G03X16706050Y-9912350I-50000J0D01*
G01*
X16706050Y-10166350D02*
G75*
G03X16706050Y-10166350I-50000J0D01*
G01*
X16706050Y-10420350D02*
G75*
G03X16706050Y-10420350I-50000J0D01*
G01*
X16706050Y-10674350D02*
G75*
G03X16706050Y-10674350I-50000J0D01*
G01*
X16706050Y-10928350D02*
G75*
G03X16706050Y-10928350I-50000J0D01*
G01*
X16706050Y-11182350D02*
G75*
G03X16706050Y-11182350I-50000J0D01*
G01*
X16706050Y-11436350D02*
G75*
G03X16706050Y-11436350I-50000J0D01*
G01*
X16706050Y-11690350D02*
G75*
G03X16706050Y-11690350I-50000J0D01*
G01*
X8133550Y-16414750D02*
G75*
G03X8133550Y-16414750I-50000J0D01*
G01*
X8133550Y-16668750D02*
G75*
G03X8133550Y-16668750I-50000J0D01*
G01*
X8387550Y-16414750D02*
G75*
G03X8387550Y-16414750I-50000J0D01*
G01*
X8387550Y-16668750D02*
G75*
G03X8387550Y-16668750I-50000J0D01*
G01*
X8641550Y-16414750D02*
G75*
G03X8641550Y-16414750I-50000J0D01*
G01*
X8641550Y-16668750D02*
G75*
G03X8641550Y-16668750I-50000J0D01*
G01*
X8895550Y-16414750D02*
G75*
G03X8895550Y-16414750I-50000J0D01*
G01*
X8895550Y-16668750D02*
G75*
G03X8895550Y-16668750I-50000J0D01*
G01*
X10394150Y-8064500D02*
G75*
G03X10394150Y-8064500I-50000J0D01*
G01*
X10648150Y-8064500D02*
G75*
G03X10648150Y-8064500I-50000J0D01*
G01*
X10902150Y-8064500D02*
G75*
G03X10902150Y-8064500I-50000J0D01*
G01*
X9365450Y-8064500D02*
G75*
G03X9365450Y-8064500I-50000J0D01*
G01*
X9619450Y-8064500D02*
G75*
G03X9619450Y-8064500I-50000J0D01*
G01*
X9873450Y-8064500D02*
G75*
G03X9873450Y-8064500I-50000J0D01*
G01*
X12432500Y-10839450D02*
G75*
G03X12432500Y-10839450I-50000J0D01*
G01*
X12686500Y-10839450D02*
G75*
G03X12686500Y-10839450I-50000J0D01*
G01*
X12940500Y-10839450D02*
G75*
G03X12940500Y-10839450I-50000J0D01*
G01*
X16674300Y-13589000D02*
G75*
G03X16674300Y-13589000I-50000J0D01*
G01*
X16674300Y-13843000D02*
G75*
G03X16674300Y-13843000I-50000J0D01*
G01*
X16674300Y-14097000D02*
G75*
G03X16674300Y-14097000I-50000J0D01*
G01*
X16674300Y-14351000D02*
G75*
G03X16674300Y-14351000I-50000J0D01*
G01*
X16674300Y-14605000D02*
G75*
G03X16674300Y-14605000I-50000J0D01*
G01*
X16674300Y-14859000D02*
G75*
G03X16674300Y-14859000I-50000J0D01*
G01*
X16674300Y-15113000D02*
G75*
G03X16674300Y-15113000I-50000J0D01*
G01*
X16674300Y-15367000D02*
G75*
G03X16674300Y-15367000I-50000J0D01*
G01*
X16674300Y-15621000D02*
G75*
G03X16674300Y-15621000I-50000J0D01*
G01*
X16674300Y-15875000D02*
G75*
G03X16674300Y-15875000I-50000J0D01*
G01*
X16674300Y-16129000D02*
G75*
G03X16674300Y-16129000I-50000J0D01*
G01*
X16674300Y-16383000D02*
G75*
G03X16674300Y-16383000I-50000J0D01*
G01*
X8166100Y-13656000D02*
X8166100Y-13776000D01*
X8106100Y-13716000D02*
X8226100Y-13716000D01*
X8166100Y-14006000D02*
X8166100Y-14126000D01*
X8106100Y-14066000D02*
X8226100Y-14066000D01*
X12670269Y-13670969D02*
X12670269Y-13557831D01*
X12557131Y-13557831D01*
X12557131Y-13670969D01*
X12670269Y-13670969D01*
X13630269Y-13670969D02*
X13630269Y-13557831D01*
X13517131Y-13557831D01*
X13517131Y-13670969D01*
X13630269Y-13670969D01*
X14480019Y-11384969D02*
X14480019Y-11271831D01*
X14366881Y-11271831D01*
X14366881Y-11384969D01*
X14480019Y-11384969D01*
X15440019Y-11384969D02*
X15440019Y-11271831D01*
X15326881Y-11271831D01*
X15326881Y-11384969D01*
X15440019Y-11384969D01*
X14562569Y-13670969D02*
X14562569Y-13557831D01*
X14449431Y-13557831D01*
X14449431Y-13670969D01*
X14562569Y-13670969D01*
X15522569Y-13670969D02*
X15522569Y-13557831D01*
X15409431Y-13557831D01*
X15409431Y-13670969D01*
X15522569Y-13670969D01*
X7594600Y-8189900D02*
X7694600Y-8089900D01*
X7594600Y-7989900D01*
X7494600Y-8089900D01*
X7594600Y-8189900D01*
X7600950Y-16895750D02*
X7700950Y-16795750D01*
X7600950Y-16695750D01*
X7500950Y-16795750D01*
X7600950Y-16895750D01*
X16852900Y-16952900D02*
X16952900Y-16852900D01*
X16852900Y-16752900D01*
X16752900Y-16852900D01*
X16852900Y-16952900D01*
X16878300Y-8215300D02*
X16978300Y-8115300D01*
X16878300Y-8015300D01*
X16778300Y-8115300D01*
X16878300Y-8215300D01*
D12*
X7507728Y-17666514D02*
X7507728Y-17366514D01*
X7579157Y-17366514D01*
X7622014Y-17380800D01*
X7650586Y-17409372D01*
X7664871Y-17437943D01*
X7679157Y-17495086D01*
X7679157Y-17537943D01*
X7664871Y-17595086D01*
X7650586Y-17623657D01*
X7622014Y-17652229D01*
X7579157Y-17666514D01*
X7507728Y-17666514D01*
X7807728Y-17666514D02*
X7807728Y-17466514D01*
X7807728Y-17523657D02*
X7822014Y-17495086D01*
X7836300Y-17480800D01*
X7864871Y-17466514D01*
X7893443Y-17466514D01*
X7993443Y-17666514D02*
X7993443Y-17466514D01*
X7993443Y-17366514D02*
X7979157Y-17380800D01*
X7993443Y-17395086D01*
X8007728Y-17380800D01*
X7993443Y-17366514D01*
X7993443Y-17395086D01*
X8179157Y-17666514D02*
X8150586Y-17652229D01*
X8136300Y-17623657D01*
X8136300Y-17366514D01*
X8336300Y-17666514D02*
X8307728Y-17652229D01*
X8293443Y-17623657D01*
X8293443Y-17366514D01*
X8679157Y-17666514D02*
X8679157Y-17366514D01*
X8779157Y-17580800D01*
X8879157Y-17366514D01*
X8879157Y-17666514D01*
X9150586Y-17666514D02*
X9150586Y-17509372D01*
X9136300Y-17480800D01*
X9107728Y-17466514D01*
X9050586Y-17466514D01*
X9022014Y-17480800D01*
X9150586Y-17652229D02*
X9122014Y-17666514D01*
X9050586Y-17666514D01*
X9022014Y-17652229D01*
X9007728Y-17623657D01*
X9007728Y-17595086D01*
X9022014Y-17566514D01*
X9050586Y-17552229D01*
X9122014Y-17552229D01*
X9150586Y-17537943D01*
X9293443Y-17466514D02*
X9293443Y-17766514D01*
X9293443Y-17480800D02*
X9322014Y-17466514D01*
X9379157Y-17466514D01*
X9407728Y-17480800D01*
X9422014Y-17495086D01*
X9436300Y-17523657D01*
X9436300Y-17609372D01*
X9422014Y-17637943D01*
X9407728Y-17652229D01*
X9379157Y-17666514D01*
X9322014Y-17666514D01*
X9293443Y-17652229D01*
X9564871Y-17637943D02*
X9579157Y-17652229D01*
X9564871Y-17666514D01*
X9550586Y-17652229D01*
X9564871Y-17637943D01*
X9564871Y-17666514D01*
X9564871Y-17480800D02*
X9579157Y-17495086D01*
X9564871Y-17509372D01*
X9550586Y-17495086D01*
X9564871Y-17480800D01*
X9564871Y-17509372D01*
X7181300Y-18140800D02*
X7221300Y-18180800D01*
X7221300Y-18140800D02*
X7181300Y-18180800D01*
X7564871Y-17996514D02*
X7593443Y-17996514D01*
X7622014Y-18010800D01*
X7636300Y-18025086D01*
X7650586Y-18053657D01*
X7664871Y-18110800D01*
X7664871Y-18182229D01*
X7650586Y-18239372D01*
X7636300Y-18267943D01*
X7622014Y-18282229D01*
X7593443Y-18296514D01*
X7564871Y-18296514D01*
X7536300Y-18282229D01*
X7522014Y-18267943D01*
X7507728Y-18239372D01*
X7493443Y-18182229D01*
X7493443Y-18110800D01*
X7507728Y-18053657D01*
X7522014Y-18025086D01*
X7536300Y-18010800D01*
X7564871Y-17996514D01*
X7793443Y-18267943D02*
X7807728Y-18282229D01*
X7793443Y-18296514D01*
X7779157Y-18282229D01*
X7793443Y-18267943D01*
X7793443Y-18296514D01*
X8064871Y-18096514D02*
X8064871Y-18296514D01*
X7993443Y-17982229D02*
X7922014Y-18196514D01*
X8107728Y-18196514D01*
X8279157Y-17996514D02*
X8307728Y-17996514D01*
X8336300Y-18010800D01*
X8350586Y-18025086D01*
X8364871Y-18053657D01*
X8379157Y-18110800D01*
X8379157Y-18182229D01*
X8364871Y-18239372D01*
X8350586Y-18267943D01*
X8336300Y-18282229D01*
X8307728Y-18296514D01*
X8279157Y-18296514D01*
X8250586Y-18282229D01*
X8236300Y-18267943D01*
X8222014Y-18239372D01*
X8207728Y-18182229D01*
X8207728Y-18110800D01*
X8222014Y-18053657D01*
X8236300Y-18025086D01*
X8250586Y-18010800D01*
X8279157Y-17996514D01*
X8507728Y-18296514D02*
X8507728Y-18096514D01*
X8507728Y-18125086D02*
X8522014Y-18110800D01*
X8550586Y-18096514D01*
X8593443Y-18096514D01*
X8622014Y-18110800D01*
X8636300Y-18139372D01*
X8636300Y-18296514D01*
X8636300Y-18139372D02*
X8650586Y-18110800D01*
X8679157Y-18096514D01*
X8722014Y-18096514D01*
X8750586Y-18110800D01*
X8764871Y-18139372D01*
X8764871Y-18296514D01*
X8907728Y-18296514D02*
X8907728Y-18096514D01*
X8907728Y-18125086D02*
X8922014Y-18110800D01*
X8950586Y-18096514D01*
X8993443Y-18096514D01*
X9022014Y-18110800D01*
X9036300Y-18139372D01*
X9036300Y-18296514D01*
X9036300Y-18139372D02*
X9050586Y-18110800D01*
X9079157Y-18096514D01*
X9122014Y-18096514D01*
X9150586Y-18110800D01*
X9164871Y-18139372D01*
X9164871Y-18296514D01*
X9750586Y-17982229D02*
X9493443Y-18367943D01*
X10136300Y-17996514D02*
X10164871Y-17996514D01*
X10193443Y-18010800D01*
X10207728Y-18025086D01*
X10222014Y-18053657D01*
X10236300Y-18110800D01*
X10236300Y-18182229D01*
X10222014Y-18239372D01*
X10207728Y-18267943D01*
X10193443Y-18282229D01*
X10164871Y-18296514D01*
X10136300Y-18296514D01*
X10107728Y-18282229D01*
X10093443Y-18267943D01*
X10079157Y-18239372D01*
X10064871Y-18182229D01*
X10064871Y-18110800D01*
X10079157Y-18053657D01*
X10093443Y-18025086D01*
X10107728Y-18010800D01*
X10136300Y-17996514D01*
X10364871Y-18267943D02*
X10379157Y-18282229D01*
X10364871Y-18296514D01*
X10350586Y-18282229D01*
X10364871Y-18267943D01*
X10364871Y-18296514D01*
X10564871Y-17996514D02*
X10593443Y-17996514D01*
X10622014Y-18010800D01*
X10636300Y-18025086D01*
X10650586Y-18053657D01*
X10664871Y-18110800D01*
X10664871Y-18182229D01*
X10650586Y-18239372D01*
X10636300Y-18267943D01*
X10622014Y-18282229D01*
X10593443Y-18296514D01*
X10564871Y-18296514D01*
X10536300Y-18282229D01*
X10522014Y-18267943D01*
X10507728Y-18239372D01*
X10493443Y-18182229D01*
X10493443Y-18110800D01*
X10507728Y-18053657D01*
X10522014Y-18025086D01*
X10536300Y-18010800D01*
X10564871Y-17996514D01*
X10950586Y-18296514D02*
X10779157Y-18296514D01*
X10864871Y-18296514D02*
X10864871Y-17996514D01*
X10836300Y-18039372D01*
X10807728Y-18067943D01*
X10779157Y-18082229D01*
X11207728Y-17996514D02*
X11150586Y-17996514D01*
X11122014Y-18010800D01*
X11107728Y-18025086D01*
X11079157Y-18067943D01*
X11064871Y-18125086D01*
X11064871Y-18239372D01*
X11079157Y-18267943D01*
X11093443Y-18282229D01*
X11122014Y-18296514D01*
X11179157Y-18296514D01*
X11207728Y-18282229D01*
X11222014Y-18267943D01*
X11236300Y-18239372D01*
X11236300Y-18167943D01*
X11222014Y-18139372D01*
X11207728Y-18125086D01*
X11179157Y-18110800D01*
X11122014Y-18110800D01*
X11093443Y-18125086D01*
X11079157Y-18139372D01*
X11064871Y-18167943D01*
X11350586Y-17996514D02*
X11350586Y-18053657D01*
X11464871Y-17996514D02*
X11464871Y-18053657D01*
X11907728Y-18410800D02*
X11893443Y-18396514D01*
X11864871Y-18353657D01*
X11850586Y-18325086D01*
X11836300Y-18282229D01*
X11822014Y-18210800D01*
X11822014Y-18153657D01*
X11836300Y-18082229D01*
X11850586Y-18039372D01*
X11864871Y-18010800D01*
X11893443Y-17967943D01*
X11907728Y-17953657D01*
X12179157Y-18296514D02*
X12007728Y-18296514D01*
X12093443Y-18296514D02*
X12093443Y-17996514D01*
X12064871Y-18039372D01*
X12036300Y-18067943D01*
X12007728Y-18082229D01*
X12450586Y-17996514D02*
X12307728Y-17996514D01*
X12293443Y-18139372D01*
X12307728Y-18125086D01*
X12336300Y-18110800D01*
X12407728Y-18110800D01*
X12436300Y-18125086D01*
X12450586Y-18139372D01*
X12464871Y-18167943D01*
X12464871Y-18239372D01*
X12450586Y-18267943D01*
X12436300Y-18282229D01*
X12407728Y-18296514D01*
X12336300Y-18296514D01*
X12307728Y-18282229D01*
X12293443Y-18267943D01*
X12564871Y-17996514D02*
X12764871Y-17996514D01*
X12636300Y-18296514D01*
X13107728Y-18296514D02*
X13107728Y-17996514D01*
X13236300Y-18296514D02*
X13236300Y-18139372D01*
X13222014Y-18110800D01*
X13193443Y-18096514D01*
X13150586Y-18096514D01*
X13122014Y-18110800D01*
X13107728Y-18125086D01*
X13422014Y-18296514D02*
X13393443Y-18282229D01*
X13379157Y-18267943D01*
X13364871Y-18239372D01*
X13364871Y-18153657D01*
X13379157Y-18125086D01*
X13393443Y-18110800D01*
X13422014Y-18096514D01*
X13464871Y-18096514D01*
X13493443Y-18110800D01*
X13507728Y-18125086D01*
X13522014Y-18153657D01*
X13522014Y-18239372D01*
X13507728Y-18267943D01*
X13493443Y-18282229D01*
X13464871Y-18296514D01*
X13422014Y-18296514D01*
X13693443Y-18296514D02*
X13664871Y-18282229D01*
X13650586Y-18253657D01*
X13650586Y-17996514D01*
X13922014Y-18282229D02*
X13893443Y-18296514D01*
X13836300Y-18296514D01*
X13807728Y-18282229D01*
X13793443Y-18253657D01*
X13793443Y-18139372D01*
X13807728Y-18110800D01*
X13836300Y-18096514D01*
X13893443Y-18096514D01*
X13922014Y-18110800D01*
X13936300Y-18139372D01*
X13936300Y-18167943D01*
X13793443Y-18196514D01*
X14050586Y-18282229D02*
X14079157Y-18296514D01*
X14136300Y-18296514D01*
X14164871Y-18282229D01*
X14179157Y-18253657D01*
X14179157Y-18239372D01*
X14164871Y-18210800D01*
X14136300Y-18196514D01*
X14093443Y-18196514D01*
X14064871Y-18182229D01*
X14050586Y-18153657D01*
X14050586Y-18139372D01*
X14064871Y-18110800D01*
X14093443Y-18096514D01*
X14136300Y-18096514D01*
X14164871Y-18110800D01*
X14279157Y-18410800D02*
X14293443Y-18396514D01*
X14322014Y-18353657D01*
X14336300Y-18325086D01*
X14350586Y-18282229D01*
X14364871Y-18210800D01*
X14364871Y-18153657D01*
X14350586Y-18082229D01*
X14336300Y-18039372D01*
X14322014Y-18010800D01*
X14293443Y-17967943D01*
X14279157Y-17953657D01*
X7221300Y-18556800D02*
G75*
G03X7221300Y-18556800I-50000J0D01*
G01*
X7664871Y-18692514D02*
X7493443Y-18692514D01*
X7579157Y-18692514D02*
X7579157Y-18392514D01*
X7550586Y-18435372D01*
X7522014Y-18463943D01*
X7493443Y-18478229D01*
X7793443Y-18663943D02*
X7807728Y-18678229D01*
X7793443Y-18692514D01*
X7779157Y-18678229D01*
X7793443Y-18663943D01*
X7793443Y-18692514D01*
X7993443Y-18392514D02*
X8022014Y-18392514D01*
X8050586Y-18406800D01*
X8064871Y-18421086D01*
X8079157Y-18449657D01*
X8093443Y-18506800D01*
X8093443Y-18578229D01*
X8079157Y-18635372D01*
X8064871Y-18663943D01*
X8050586Y-18678229D01*
X8022014Y-18692514D01*
X7993443Y-18692514D01*
X7964871Y-18678229D01*
X7950586Y-18663943D01*
X7936300Y-18635372D01*
X7922014Y-18578229D01*
X7922014Y-18506800D01*
X7936300Y-18449657D01*
X7950586Y-18421086D01*
X7964871Y-18406800D01*
X7993443Y-18392514D01*
X8279157Y-18392514D02*
X8307728Y-18392514D01*
X8336300Y-18406800D01*
X8350586Y-18421086D01*
X8364871Y-18449657D01*
X8379157Y-18506800D01*
X8379157Y-18578229D01*
X8364871Y-18635372D01*
X8350586Y-18663943D01*
X8336300Y-18678229D01*
X8307728Y-18692514D01*
X8279157Y-18692514D01*
X8250586Y-18678229D01*
X8236300Y-18663943D01*
X8222014Y-18635372D01*
X8207728Y-18578229D01*
X8207728Y-18506800D01*
X8222014Y-18449657D01*
X8236300Y-18421086D01*
X8250586Y-18406800D01*
X8279157Y-18392514D01*
X8507728Y-18692514D02*
X8507728Y-18492514D01*
X8507728Y-18521086D02*
X8522014Y-18506800D01*
X8550586Y-18492514D01*
X8593443Y-18492514D01*
X8622014Y-18506800D01*
X8636300Y-18535372D01*
X8636300Y-18692514D01*
X8636300Y-18535372D02*
X8650586Y-18506800D01*
X8679157Y-18492514D01*
X8722014Y-18492514D01*
X8750586Y-18506800D01*
X8764871Y-18535372D01*
X8764871Y-18692514D01*
X8907728Y-18692514D02*
X8907728Y-18492514D01*
X8907728Y-18521086D02*
X8922014Y-18506800D01*
X8950586Y-18492514D01*
X8993443Y-18492514D01*
X9022014Y-18506800D01*
X9036300Y-18535372D01*
X9036300Y-18692514D01*
X9036300Y-18535372D02*
X9050586Y-18506800D01*
X9079157Y-18492514D01*
X9122014Y-18492514D01*
X9150586Y-18506800D01*
X9164871Y-18535372D01*
X9164871Y-18692514D01*
X9750586Y-18378229D02*
X9493443Y-18763943D01*
X10136300Y-18392514D02*
X10164871Y-18392514D01*
X10193443Y-18406800D01*
X10207728Y-18421086D01*
X10222014Y-18449657D01*
X10236300Y-18506800D01*
X10236300Y-18578229D01*
X10222014Y-18635372D01*
X10207728Y-18663943D01*
X10193443Y-18678229D01*
X10164871Y-18692514D01*
X10136300Y-18692514D01*
X10107728Y-18678229D01*
X10093443Y-18663943D01*
X10079157Y-18635372D01*
X10064871Y-18578229D01*
X10064871Y-18506800D01*
X10079157Y-18449657D01*
X10093443Y-18421086D01*
X10107728Y-18406800D01*
X10136300Y-18392514D01*
X10364871Y-18663943D02*
X10379157Y-18678229D01*
X10364871Y-18692514D01*
X10350586Y-18678229D01*
X10364871Y-18663943D01*
X10364871Y-18692514D01*
X10564871Y-18392514D02*
X10593443Y-18392514D01*
X10622014Y-18406800D01*
X10636300Y-18421086D01*
X10650586Y-18449657D01*
X10664871Y-18506800D01*
X10664871Y-18578229D01*
X10650586Y-18635372D01*
X10636300Y-18663943D01*
X10622014Y-18678229D01*
X10593443Y-18692514D01*
X10564871Y-18692514D01*
X10536300Y-18678229D01*
X10522014Y-18663943D01*
X10507728Y-18635372D01*
X10493443Y-18578229D01*
X10493443Y-18506800D01*
X10507728Y-18449657D01*
X10522014Y-18421086D01*
X10536300Y-18406800D01*
X10564871Y-18392514D01*
X10764871Y-18392514D02*
X10950586Y-18392514D01*
X10850586Y-18506800D01*
X10893443Y-18506800D01*
X10922014Y-18521086D01*
X10936300Y-18535372D01*
X10950586Y-18563943D01*
X10950586Y-18635372D01*
X10936300Y-18663943D01*
X10922014Y-18678229D01*
X10893443Y-18692514D01*
X10807728Y-18692514D01*
X10779157Y-18678229D01*
X10764871Y-18663943D01*
X11093443Y-18692514D02*
X11150586Y-18692514D01*
X11179157Y-18678229D01*
X11193443Y-18663943D01*
X11222014Y-18621086D01*
X11236300Y-18563943D01*
X11236300Y-18449657D01*
X11222014Y-18421086D01*
X11207728Y-18406800D01*
X11179157Y-18392514D01*
X11122014Y-18392514D01*
X11093443Y-18406800D01*
X11079157Y-18421086D01*
X11064871Y-18449657D01*
X11064871Y-18521086D01*
X11079157Y-18549657D01*
X11093443Y-18563943D01*
X11122014Y-18578229D01*
X11179157Y-18578229D01*
X11207728Y-18563943D01*
X11222014Y-18549657D01*
X11236300Y-18521086D01*
X11350586Y-18392514D02*
X11350586Y-18449657D01*
X11464871Y-18392514D02*
X11464871Y-18449657D01*
X11907728Y-18806800D02*
X11893443Y-18792514D01*
X11864871Y-18749657D01*
X11850586Y-18721086D01*
X11836300Y-18678229D01*
X11822014Y-18606800D01*
X11822014Y-18549657D01*
X11836300Y-18478229D01*
X11850586Y-18435372D01*
X11864871Y-18406800D01*
X11893443Y-18363943D01*
X11907728Y-18349657D01*
X12064871Y-18521086D02*
X12036300Y-18506800D01*
X12022014Y-18492514D01*
X12007728Y-18463943D01*
X12007728Y-18449657D01*
X12022014Y-18421086D01*
X12036300Y-18406800D01*
X12064871Y-18392514D01*
X12122014Y-18392514D01*
X12150586Y-18406800D01*
X12164871Y-18421086D01*
X12179157Y-18449657D01*
X12179157Y-18463943D01*
X12164871Y-18492514D01*
X12150586Y-18506800D01*
X12122014Y-18521086D01*
X12064871Y-18521086D01*
X12036300Y-18535372D01*
X12022014Y-18549657D01*
X12007728Y-18578229D01*
X12007728Y-18635372D01*
X12022014Y-18663943D01*
X12036300Y-18678229D01*
X12064871Y-18692514D01*
X12122014Y-18692514D01*
X12150586Y-18678229D01*
X12164871Y-18663943D01*
X12179157Y-18635372D01*
X12179157Y-18578229D01*
X12164871Y-18549657D01*
X12150586Y-18535372D01*
X12122014Y-18521086D01*
X12436300Y-18492514D02*
X12436300Y-18692514D01*
X12364871Y-18378229D02*
X12293443Y-18592514D01*
X12479157Y-18592514D01*
X12822014Y-18692514D02*
X12822014Y-18392514D01*
X12950586Y-18692514D02*
X12950586Y-18535372D01*
X12936300Y-18506800D01*
X12907728Y-18492514D01*
X12864871Y-18492514D01*
X12836300Y-18506800D01*
X12822014Y-18521086D01*
X13136300Y-18692514D02*
X13107728Y-18678229D01*
X13093443Y-18663943D01*
X13079157Y-18635372D01*
X13079157Y-18549657D01*
X13093443Y-18521086D01*
X13107728Y-18506800D01*
X13136300Y-18492514D01*
X13179157Y-18492514D01*
X13207728Y-18506800D01*
X13222014Y-18521086D01*
X13236300Y-18549657D01*
X13236300Y-18635372D01*
X13222014Y-18663943D01*
X13207728Y-18678229D01*
X13179157Y-18692514D01*
X13136300Y-18692514D01*
X13407728Y-18692514D02*
X13379157Y-18678229D01*
X13364871Y-18649657D01*
X13364871Y-18392514D01*
X13636300Y-18678229D02*
X13607728Y-18692514D01*
X13550586Y-18692514D01*
X13522014Y-18678229D01*
X13507728Y-18649657D01*
X13507728Y-18535372D01*
X13522014Y-18506800D01*
X13550586Y-18492514D01*
X13607728Y-18492514D01*
X13636300Y-18506800D01*
X13650586Y-18535372D01*
X13650586Y-18563943D01*
X13507728Y-18592514D01*
X13764871Y-18678229D02*
X13793443Y-18692514D01*
X13850586Y-18692514D01*
X13879157Y-18678229D01*
X13893443Y-18649657D01*
X13893443Y-18635372D01*
X13879157Y-18606800D01*
X13850586Y-18592514D01*
X13807728Y-18592514D01*
X13779157Y-18578229D01*
X13764871Y-18549657D01*
X13764871Y-18535372D01*
X13779157Y-18506800D01*
X13807728Y-18492514D01*
X13850586Y-18492514D01*
X13879157Y-18506800D01*
X13993443Y-18806800D02*
X14007728Y-18792514D01*
X14036300Y-18749657D01*
X14050586Y-18721086D01*
X14064871Y-18678229D01*
X14079157Y-18606800D01*
X14079157Y-18549657D01*
X14064871Y-18478229D01*
X14050586Y-18435372D01*
X14036300Y-18406800D01*
X14007728Y-18363943D01*
X13993443Y-18349657D01*
X7161300Y-18892800D02*
X7161300Y-19012800D01*
X7101300Y-18952800D02*
X7221300Y-18952800D01*
X7664871Y-19088514D02*
X7493443Y-19088514D01*
X7579157Y-19088514D02*
X7579157Y-18788514D01*
X7550586Y-18831372D01*
X7522014Y-18859943D01*
X7493443Y-18874229D01*
X7793443Y-19059943D02*
X7807728Y-19074229D01*
X7793443Y-19088514D01*
X7779157Y-19074229D01*
X7793443Y-19059943D01*
X7793443Y-19088514D01*
X7922014Y-18817086D02*
X7936300Y-18802800D01*
X7964871Y-18788514D01*
X8036300Y-18788514D01*
X8064871Y-18802800D01*
X8079157Y-18817086D01*
X8093443Y-18845657D01*
X8093443Y-18874229D01*
X8079157Y-18917086D01*
X7907728Y-19088514D01*
X8093443Y-19088514D01*
X8279157Y-18788514D02*
X8307728Y-18788514D01*
X8336300Y-18802800D01*
X8350586Y-18817086D01*
X8364871Y-18845657D01*
X8379157Y-18902800D01*
X8379157Y-18974229D01*
X8364871Y-19031372D01*
X8350586Y-19059943D01*
X8336300Y-19074229D01*
X8307728Y-19088514D01*
X8279157Y-19088514D01*
X8250586Y-19074229D01*
X8236300Y-19059943D01*
X8222014Y-19031372D01*
X8207728Y-18974229D01*
X8207728Y-18902800D01*
X8222014Y-18845657D01*
X8236300Y-18817086D01*
X8250586Y-18802800D01*
X8279157Y-18788514D01*
X8507728Y-19088514D02*
X8507728Y-18888514D01*
X8507728Y-18917086D02*
X8522014Y-18902800D01*
X8550586Y-18888514D01*
X8593443Y-18888514D01*
X8622014Y-18902800D01*
X8636300Y-18931372D01*
X8636300Y-19088514D01*
X8636300Y-18931372D02*
X8650586Y-18902800D01*
X8679157Y-18888514D01*
X8722014Y-18888514D01*
X8750586Y-18902800D01*
X8764871Y-18931372D01*
X8764871Y-19088514D01*
X8907728Y-19088514D02*
X8907728Y-18888514D01*
X8907728Y-18917086D02*
X8922014Y-18902800D01*
X8950586Y-18888514D01*
X8993443Y-18888514D01*
X9022014Y-18902800D01*
X9036300Y-18931372D01*
X9036300Y-19088514D01*
X9036300Y-18931372D02*
X9050586Y-18902800D01*
X9079157Y-18888514D01*
X9122014Y-18888514D01*
X9150586Y-18902800D01*
X9164871Y-18931372D01*
X9164871Y-19088514D01*
X9750586Y-18774229D02*
X9493443Y-19159943D01*
X10136300Y-18788514D02*
X10164871Y-18788514D01*
X10193443Y-18802800D01*
X10207728Y-18817086D01*
X10222014Y-18845657D01*
X10236300Y-18902800D01*
X10236300Y-18974229D01*
X10222014Y-19031372D01*
X10207728Y-19059943D01*
X10193443Y-19074229D01*
X10164871Y-19088514D01*
X10136300Y-19088514D01*
X10107728Y-19074229D01*
X10093443Y-19059943D01*
X10079157Y-19031372D01*
X10064871Y-18974229D01*
X10064871Y-18902800D01*
X10079157Y-18845657D01*
X10093443Y-18817086D01*
X10107728Y-18802800D01*
X10136300Y-18788514D01*
X10364871Y-19059943D02*
X10379157Y-19074229D01*
X10364871Y-19088514D01*
X10350586Y-19074229D01*
X10364871Y-19059943D01*
X10364871Y-19088514D01*
X10564871Y-18788514D02*
X10593443Y-18788514D01*
X10622014Y-18802800D01*
X10636300Y-18817086D01*
X10650586Y-18845657D01*
X10664871Y-18902800D01*
X10664871Y-18974229D01*
X10650586Y-19031372D01*
X10636300Y-19059943D01*
X10622014Y-19074229D01*
X10593443Y-19088514D01*
X10564871Y-19088514D01*
X10536300Y-19074229D01*
X10522014Y-19059943D01*
X10507728Y-19031372D01*
X10493443Y-18974229D01*
X10493443Y-18902800D01*
X10507728Y-18845657D01*
X10522014Y-18817086D01*
X10536300Y-18802800D01*
X10564871Y-18788514D01*
X10922014Y-18888514D02*
X10922014Y-19088514D01*
X10850586Y-18774229D02*
X10779157Y-18988514D01*
X10964871Y-18988514D01*
X11050586Y-18788514D02*
X11250586Y-18788514D01*
X11122014Y-19088514D01*
X11350586Y-18788514D02*
X11350586Y-18845657D01*
X11464871Y-18788514D02*
X11464871Y-18845657D01*
X11907728Y-19202800D02*
X11893443Y-19188514D01*
X11864871Y-19145657D01*
X11850586Y-19117086D01*
X11836300Y-19074229D01*
X11822014Y-19002800D01*
X11822014Y-18945657D01*
X11836300Y-18874229D01*
X11850586Y-18831372D01*
X11864871Y-18802800D01*
X11893443Y-18759943D01*
X11907728Y-18745657D01*
X12007728Y-18817086D02*
X12022014Y-18802800D01*
X12050586Y-18788514D01*
X12122014Y-18788514D01*
X12150586Y-18802800D01*
X12164871Y-18817086D01*
X12179157Y-18845657D01*
X12179157Y-18874229D01*
X12164871Y-18917086D01*
X11993443Y-19088514D01*
X12179157Y-19088514D01*
X12536300Y-19088514D02*
X12536300Y-18788514D01*
X12664871Y-19088514D02*
X12664871Y-18931372D01*
X12650586Y-18902800D01*
X12622014Y-18888514D01*
X12579157Y-18888514D01*
X12550586Y-18902800D01*
X12536300Y-18917086D01*
X12850586Y-19088514D02*
X12822014Y-19074229D01*
X12807728Y-19059943D01*
X12793443Y-19031372D01*
X12793443Y-18945657D01*
X12807728Y-18917086D01*
X12822014Y-18902800D01*
X12850586Y-18888514D01*
X12893443Y-18888514D01*
X12922014Y-18902800D01*
X12936300Y-18917086D01*
X12950586Y-18945657D01*
X12950586Y-19031372D01*
X12936300Y-19059943D01*
X12922014Y-19074229D01*
X12893443Y-19088514D01*
X12850586Y-19088514D01*
X13122014Y-19088514D02*
X13093443Y-19074229D01*
X13079157Y-19045657D01*
X13079157Y-18788514D01*
X13350586Y-19074229D02*
X13322014Y-19088514D01*
X13264871Y-19088514D01*
X13236300Y-19074229D01*
X13222014Y-19045657D01*
X13222014Y-18931372D01*
X13236300Y-18902800D01*
X13264871Y-18888514D01*
X13322014Y-18888514D01*
X13350586Y-18902800D01*
X13364871Y-18931372D01*
X13364871Y-18959943D01*
X13222014Y-18988514D01*
X13479157Y-19074229D02*
X13507728Y-19088514D01*
X13564871Y-19088514D01*
X13593443Y-19074229D01*
X13607728Y-19045657D01*
X13607728Y-19031372D01*
X13593443Y-19002800D01*
X13564871Y-18988514D01*
X13522014Y-18988514D01*
X13493443Y-18974229D01*
X13479157Y-18945657D01*
X13479157Y-18931372D01*
X13493443Y-18902800D01*
X13522014Y-18888514D01*
X13564871Y-18888514D01*
X13593443Y-18902800D01*
X13707728Y-19202800D02*
X13722014Y-19188514D01*
X13750586Y-19145657D01*
X13764871Y-19117086D01*
X13779157Y-19074229D01*
X13793443Y-19002800D01*
X13793443Y-18945657D01*
X13779157Y-18874229D01*
X13764871Y-18831372D01*
X13750586Y-18802800D01*
X13722014Y-18759943D01*
X13707728Y-18745657D01*
X7197869Y-19405369D02*
X7197869Y-19292231D01*
X7084731Y-19292231D01*
X7084731Y-19405369D01*
X7197869Y-19405369D01*
X7664871Y-19484514D02*
X7493443Y-19484514D01*
X7579157Y-19484514D02*
X7579157Y-19184514D01*
X7550586Y-19227372D01*
X7522014Y-19255943D01*
X7493443Y-19270229D01*
X7793443Y-19455943D02*
X7807728Y-19470229D01*
X7793443Y-19484514D01*
X7779157Y-19470229D01*
X7793443Y-19455943D01*
X7793443Y-19484514D01*
X8064871Y-19184514D02*
X8007728Y-19184514D01*
X7979157Y-19198800D01*
X7964871Y-19213086D01*
X7936300Y-19255943D01*
X7922014Y-19313086D01*
X7922014Y-19427372D01*
X7936300Y-19455943D01*
X7950586Y-19470229D01*
X7979157Y-19484514D01*
X8036300Y-19484514D01*
X8064871Y-19470229D01*
X8079157Y-19455943D01*
X8093443Y-19427372D01*
X8093443Y-19355943D01*
X8079157Y-19327372D01*
X8064871Y-19313086D01*
X8036300Y-19298800D01*
X7979157Y-19298800D01*
X7950586Y-19313086D01*
X7936300Y-19327372D01*
X7922014Y-19355943D01*
X8279157Y-19184514D02*
X8307728Y-19184514D01*
X8336300Y-19198800D01*
X8350586Y-19213086D01*
X8364871Y-19241657D01*
X8379157Y-19298800D01*
X8379157Y-19370229D01*
X8364871Y-19427372D01*
X8350586Y-19455943D01*
X8336300Y-19470229D01*
X8307728Y-19484514D01*
X8279157Y-19484514D01*
X8250586Y-19470229D01*
X8236300Y-19455943D01*
X8222014Y-19427372D01*
X8207728Y-19370229D01*
X8207728Y-19298800D01*
X8222014Y-19241657D01*
X8236300Y-19213086D01*
X8250586Y-19198800D01*
X8279157Y-19184514D01*
X8507728Y-19484514D02*
X8507728Y-19284514D01*
X8507728Y-19313086D02*
X8522014Y-19298800D01*
X8550586Y-19284514D01*
X8593443Y-19284514D01*
X8622014Y-19298800D01*
X8636300Y-19327372D01*
X8636300Y-19484514D01*
X8636300Y-19327372D02*
X8650586Y-19298800D01*
X8679157Y-19284514D01*
X8722014Y-19284514D01*
X8750586Y-19298800D01*
X8764871Y-19327372D01*
X8764871Y-19484514D01*
X8907728Y-19484514D02*
X8907728Y-19284514D01*
X8907728Y-19313086D02*
X8922014Y-19298800D01*
X8950586Y-19284514D01*
X8993443Y-19284514D01*
X9022014Y-19298800D01*
X9036300Y-19327372D01*
X9036300Y-19484514D01*
X9036300Y-19327372D02*
X9050586Y-19298800D01*
X9079157Y-19284514D01*
X9122014Y-19284514D01*
X9150586Y-19298800D01*
X9164871Y-19327372D01*
X9164871Y-19484514D01*
X9750586Y-19170229D02*
X9493443Y-19555943D01*
X10136300Y-19184514D02*
X10164871Y-19184514D01*
X10193443Y-19198800D01*
X10207728Y-19213086D01*
X10222014Y-19241657D01*
X10236300Y-19298800D01*
X10236300Y-19370229D01*
X10222014Y-19427372D01*
X10207728Y-19455943D01*
X10193443Y-19470229D01*
X10164871Y-19484514D01*
X10136300Y-19484514D01*
X10107728Y-19470229D01*
X10093443Y-19455943D01*
X10079157Y-19427372D01*
X10064871Y-19370229D01*
X10064871Y-19298800D01*
X10079157Y-19241657D01*
X10093443Y-19213086D01*
X10107728Y-19198800D01*
X10136300Y-19184514D01*
X10364871Y-19455943D02*
X10379157Y-19470229D01*
X10364871Y-19484514D01*
X10350586Y-19470229D01*
X10364871Y-19455943D01*
X10364871Y-19484514D01*
X10564871Y-19184514D02*
X10593443Y-19184514D01*
X10622014Y-19198800D01*
X10636300Y-19213086D01*
X10650586Y-19241657D01*
X10664871Y-19298800D01*
X10664871Y-19370229D01*
X10650586Y-19427372D01*
X10636300Y-19455943D01*
X10622014Y-19470229D01*
X10593443Y-19484514D01*
X10564871Y-19484514D01*
X10536300Y-19470229D01*
X10522014Y-19455943D01*
X10507728Y-19427372D01*
X10493443Y-19370229D01*
X10493443Y-19298800D01*
X10507728Y-19241657D01*
X10522014Y-19213086D01*
X10536300Y-19198800D01*
X10564871Y-19184514D01*
X10922014Y-19184514D02*
X10864871Y-19184514D01*
X10836300Y-19198800D01*
X10822014Y-19213086D01*
X10793443Y-19255943D01*
X10779157Y-19313086D01*
X10779157Y-19427372D01*
X10793443Y-19455943D01*
X10807728Y-19470229D01*
X10836300Y-19484514D01*
X10893443Y-19484514D01*
X10922014Y-19470229D01*
X10936300Y-19455943D01*
X10950586Y-19427372D01*
X10950586Y-19355943D01*
X10936300Y-19327372D01*
X10922014Y-19313086D01*
X10893443Y-19298800D01*
X10836300Y-19298800D01*
X10807728Y-19313086D01*
X10793443Y-19327372D01*
X10779157Y-19355943D01*
X11050586Y-19184514D02*
X11236300Y-19184514D01*
X11136300Y-19298800D01*
X11179157Y-19298800D01*
X11207728Y-19313086D01*
X11222014Y-19327372D01*
X11236300Y-19355943D01*
X11236300Y-19427372D01*
X11222014Y-19455943D01*
X11207728Y-19470229D01*
X11179157Y-19484514D01*
X11093443Y-19484514D01*
X11064871Y-19470229D01*
X11050586Y-19455943D01*
X11350586Y-19184514D02*
X11350586Y-19241657D01*
X11464871Y-19184514D02*
X11464871Y-19241657D01*
X11907728Y-19598800D02*
X11893443Y-19584514D01*
X11864871Y-19541657D01*
X11850586Y-19513086D01*
X11836300Y-19470229D01*
X11822014Y-19398800D01*
X11822014Y-19341657D01*
X11836300Y-19270229D01*
X11850586Y-19227372D01*
X11864871Y-19198800D01*
X11893443Y-19155943D01*
X11907728Y-19141657D01*
X12150586Y-19184514D02*
X12093443Y-19184514D01*
X12064871Y-19198800D01*
X12050586Y-19213086D01*
X12022014Y-19255943D01*
X12007728Y-19313086D01*
X12007728Y-19427372D01*
X12022014Y-19455943D01*
X12036300Y-19470229D01*
X12064871Y-19484514D01*
X12122014Y-19484514D01*
X12150586Y-19470229D01*
X12164871Y-19455943D01*
X12179157Y-19427372D01*
X12179157Y-19355943D01*
X12164871Y-19327372D01*
X12150586Y-19313086D01*
X12122014Y-19298800D01*
X12064871Y-19298800D01*
X12036300Y-19313086D01*
X12022014Y-19327372D01*
X12007728Y-19355943D01*
X12536300Y-19484514D02*
X12536300Y-19184514D01*
X12664871Y-19484514D02*
X12664871Y-19327372D01*
X12650586Y-19298800D01*
X12622014Y-19284514D01*
X12579157Y-19284514D01*
X12550586Y-19298800D01*
X12536300Y-19313086D01*
X12850586Y-19484514D02*
X12822014Y-19470229D01*
X12807728Y-19455943D01*
X12793443Y-19427372D01*
X12793443Y-19341657D01*
X12807728Y-19313086D01*
X12822014Y-19298800D01*
X12850586Y-19284514D01*
X12893443Y-19284514D01*
X12922014Y-19298800D01*
X12936300Y-19313086D01*
X12950586Y-19341657D01*
X12950586Y-19427372D01*
X12936300Y-19455943D01*
X12922014Y-19470229D01*
X12893443Y-19484514D01*
X12850586Y-19484514D01*
X13122014Y-19484514D02*
X13093443Y-19470229D01*
X13079157Y-19441657D01*
X13079157Y-19184514D01*
X13350586Y-19470229D02*
X13322014Y-19484514D01*
X13264871Y-19484514D01*
X13236300Y-19470229D01*
X13222014Y-19441657D01*
X13222014Y-19327372D01*
X13236300Y-19298800D01*
X13264871Y-19284514D01*
X13322014Y-19284514D01*
X13350586Y-19298800D01*
X13364871Y-19327372D01*
X13364871Y-19355943D01*
X13222014Y-19384514D01*
X13479157Y-19470229D02*
X13507728Y-19484514D01*
X13564871Y-19484514D01*
X13593443Y-19470229D01*
X13607728Y-19441657D01*
X13607728Y-19427372D01*
X13593443Y-19398800D01*
X13564871Y-19384514D01*
X13522014Y-19384514D01*
X13493443Y-19370229D01*
X13479157Y-19341657D01*
X13479157Y-19327372D01*
X13493443Y-19298800D01*
X13522014Y-19284514D01*
X13564871Y-19284514D01*
X13593443Y-19298800D01*
X13707728Y-19598800D02*
X13722014Y-19584514D01*
X13750586Y-19541657D01*
X13764871Y-19513086D01*
X13779157Y-19470229D01*
X13793443Y-19398800D01*
X13793443Y-19341657D01*
X13779157Y-19270229D01*
X13764871Y-19227372D01*
X13750586Y-19198800D01*
X13722014Y-19155943D01*
X13707728Y-19141657D01*
X7121300Y-19844800D02*
X7221300Y-19744800D01*
X7121300Y-19644800D01*
X7021300Y-19744800D01*
X7121300Y-19844800D01*
X7493443Y-19609086D02*
X7507728Y-19594800D01*
X7536300Y-19580514D01*
X7607728Y-19580514D01*
X7636300Y-19594800D01*
X7650586Y-19609086D01*
X7664871Y-19637657D01*
X7664871Y-19666229D01*
X7650586Y-19709086D01*
X7479157Y-19880514D01*
X7664871Y-19880514D01*
X7793443Y-19851943D02*
X7807728Y-19866229D01*
X7793443Y-19880514D01*
X7779157Y-19866229D01*
X7793443Y-19851943D01*
X7793443Y-19880514D01*
X7993443Y-19580514D02*
X8022014Y-19580514D01*
X8050586Y-19594800D01*
X8064871Y-19609086D01*
X8079157Y-19637657D01*
X8093443Y-19694800D01*
X8093443Y-19766229D01*
X8079157Y-19823372D01*
X8064871Y-19851943D01*
X8050586Y-19866229D01*
X8022014Y-19880514D01*
X7993443Y-19880514D01*
X7964871Y-19866229D01*
X7950586Y-19851943D01*
X7936300Y-19823372D01*
X7922014Y-19766229D01*
X7922014Y-19694800D01*
X7936300Y-19637657D01*
X7950586Y-19609086D01*
X7964871Y-19594800D01*
X7993443Y-19580514D01*
X8279157Y-19580514D02*
X8307728Y-19580514D01*
X8336300Y-19594800D01*
X8350586Y-19609086D01*
X8364871Y-19637657D01*
X8379157Y-19694800D01*
X8379157Y-19766229D01*
X8364871Y-19823372D01*
X8350586Y-19851943D01*
X8336300Y-19866229D01*
X8307728Y-19880514D01*
X8279157Y-19880514D01*
X8250586Y-19866229D01*
X8236300Y-19851943D01*
X8222014Y-19823372D01*
X8207728Y-19766229D01*
X8207728Y-19694800D01*
X8222014Y-19637657D01*
X8236300Y-19609086D01*
X8250586Y-19594800D01*
X8279157Y-19580514D01*
X8507728Y-19880514D02*
X8507728Y-19680514D01*
X8507728Y-19709086D02*
X8522014Y-19694800D01*
X8550586Y-19680514D01*
X8593443Y-19680514D01*
X8622014Y-19694800D01*
X8636300Y-19723372D01*
X8636300Y-19880514D01*
X8636300Y-19723372D02*
X8650586Y-19694800D01*
X8679157Y-19680514D01*
X8722014Y-19680514D01*
X8750586Y-19694800D01*
X8764871Y-19723372D01*
X8764871Y-19880514D01*
X8907728Y-19880514D02*
X8907728Y-19680514D01*
X8907728Y-19709086D02*
X8922014Y-19694800D01*
X8950586Y-19680514D01*
X8993443Y-19680514D01*
X9022014Y-19694800D01*
X9036300Y-19723372D01*
X9036300Y-19880514D01*
X9036300Y-19723372D02*
X9050586Y-19694800D01*
X9079157Y-19680514D01*
X9122014Y-19680514D01*
X9150586Y-19694800D01*
X9164871Y-19723372D01*
X9164871Y-19880514D01*
X9750586Y-19566229D02*
X9493443Y-19951943D01*
X10136300Y-19580514D02*
X10164871Y-19580514D01*
X10193443Y-19594800D01*
X10207728Y-19609086D01*
X10222014Y-19637657D01*
X10236300Y-19694800D01*
X10236300Y-19766229D01*
X10222014Y-19823372D01*
X10207728Y-19851943D01*
X10193443Y-19866229D01*
X10164871Y-19880514D01*
X10136300Y-19880514D01*
X10107728Y-19866229D01*
X10093443Y-19851943D01*
X10079157Y-19823372D01*
X10064871Y-19766229D01*
X10064871Y-19694800D01*
X10079157Y-19637657D01*
X10093443Y-19609086D01*
X10107728Y-19594800D01*
X10136300Y-19580514D01*
X10364871Y-19851943D02*
X10379157Y-19866229D01*
X10364871Y-19880514D01*
X10350586Y-19866229D01*
X10364871Y-19851943D01*
X10364871Y-19880514D01*
X10564871Y-19580514D02*
X10593443Y-19580514D01*
X10622014Y-19594800D01*
X10636300Y-19609086D01*
X10650586Y-19637657D01*
X10664871Y-19694800D01*
X10664871Y-19766229D01*
X10650586Y-19823372D01*
X10636300Y-19851943D01*
X10622014Y-19866229D01*
X10593443Y-19880514D01*
X10564871Y-19880514D01*
X10536300Y-19866229D01*
X10522014Y-19851943D01*
X10507728Y-19823372D01*
X10493443Y-19766229D01*
X10493443Y-19694800D01*
X10507728Y-19637657D01*
X10522014Y-19609086D01*
X10536300Y-19594800D01*
X10564871Y-19580514D01*
X10764871Y-19580514D02*
X10964871Y-19580514D01*
X10836300Y-19880514D01*
X11093443Y-19880514D02*
X11150586Y-19880514D01*
X11179157Y-19866229D01*
X11193443Y-19851943D01*
X11222014Y-19809086D01*
X11236300Y-19751943D01*
X11236300Y-19637657D01*
X11222014Y-19609086D01*
X11207728Y-19594800D01*
X11179157Y-19580514D01*
X11122014Y-19580514D01*
X11093443Y-19594800D01*
X11079157Y-19609086D01*
X11064871Y-19637657D01*
X11064871Y-19709086D01*
X11079157Y-19737657D01*
X11093443Y-19751943D01*
X11122014Y-19766229D01*
X11179157Y-19766229D01*
X11207728Y-19751943D01*
X11222014Y-19737657D01*
X11236300Y-19709086D01*
X11350586Y-19580514D02*
X11350586Y-19637657D01*
X11464871Y-19580514D02*
X11464871Y-19637657D01*
X11907728Y-19994800D02*
X11893443Y-19980514D01*
X11864871Y-19937657D01*
X11850586Y-19909086D01*
X11836300Y-19866229D01*
X11822014Y-19794800D01*
X11822014Y-19737657D01*
X11836300Y-19666229D01*
X11850586Y-19623372D01*
X11864871Y-19594800D01*
X11893443Y-19551943D01*
X11907728Y-19537657D01*
X12150586Y-19680514D02*
X12150586Y-19880514D01*
X12079157Y-19566229D02*
X12007728Y-19780514D01*
X12193443Y-19780514D01*
X12536300Y-19880514D02*
X12536300Y-19580514D01*
X12664871Y-19880514D02*
X12664871Y-19723372D01*
X12650586Y-19694800D01*
X12622014Y-19680514D01*
X12579157Y-19680514D01*
X12550586Y-19694800D01*
X12536300Y-19709086D01*
X12850586Y-19880514D02*
X12822014Y-19866229D01*
X12807728Y-19851943D01*
X12793443Y-19823372D01*
X12793443Y-19737657D01*
X12807728Y-19709086D01*
X12822014Y-19694800D01*
X12850586Y-19680514D01*
X12893443Y-19680514D01*
X12922014Y-19694800D01*
X12936300Y-19709086D01*
X12950586Y-19737657D01*
X12950586Y-19823372D01*
X12936300Y-19851943D01*
X12922014Y-19866229D01*
X12893443Y-19880514D01*
X12850586Y-19880514D01*
X13122014Y-19880514D02*
X13093443Y-19866229D01*
X13079157Y-19837657D01*
X13079157Y-19580514D01*
X13350586Y-19866229D02*
X13322014Y-19880514D01*
X13264871Y-19880514D01*
X13236300Y-19866229D01*
X13222014Y-19837657D01*
X13222014Y-19723372D01*
X13236300Y-19694800D01*
X13264871Y-19680514D01*
X13322014Y-19680514D01*
X13350586Y-19694800D01*
X13364871Y-19723372D01*
X13364871Y-19751943D01*
X13222014Y-19780514D01*
X13479157Y-19866229D02*
X13507728Y-19880514D01*
X13564871Y-19880514D01*
X13593443Y-19866229D01*
X13607728Y-19837657D01*
X13607728Y-19823372D01*
X13593443Y-19794800D01*
X13564871Y-19780514D01*
X13522014Y-19780514D01*
X13493443Y-19766229D01*
X13479157Y-19737657D01*
X13479157Y-19723372D01*
X13493443Y-19694800D01*
X13522014Y-19680514D01*
X13564871Y-19680514D01*
X13593443Y-19694800D01*
X13707728Y-19994800D02*
X13722014Y-19980514D01*
X13750586Y-19937657D01*
X13764871Y-19909086D01*
X13779157Y-19866229D01*
X13793443Y-19794800D01*
X13793443Y-19737657D01*
X13779157Y-19666229D01*
X13764871Y-19623372D01*
X13750586Y-19594800D01*
X13722014Y-19551943D01*
X13707728Y-19537657D01*
M02*
